<svg preserveAspectRatio="xMidYMid meet" viewBox="-1048.3931 -475.2240 2157.4768 962.9499" height="100%" width="100%" xmlns="http://www.w3.org/2000/svg"><defs><pattern patternUnits="userSpaceOnUse" height="1000" width="1000" viewBox="0,0,10,10" id="placeholder"><polygon points="0,0 0,5 5,5 5,0" fill="grey"></polygon><polygon points="5,5 5,10 10,10 10,5" fill="grey"></polygon></pattern></defs><path d="M -868.6034 364.7987 Q -868.6034 407.4801 -823.2923 407.4801 Q 30.3453 407.4801 883.9829 407.4801 Q 929.2940 407.4801 929.2940 364.7987 Q 929.2940 6.2510 929.2940 -352.2967 Q 929.2940 -394.9781 883.9829 -394.9781 Q 30.3453 -394.9781 -823.2923 -394.9781 Q -868.6034 -394.9781 -868.6034 -352.2967 Q -868.6034 6.2510 -868.6034 364.7987 Z" fill="rgba(247,247,247,1.00)" stroke-width="10.0000" stroke="rgba(0,0,0,1.00)"></path><path d="M 761.0623 -12.6747 Q 736.6716 -12.6747 736.6716 6.2510 Q 736.6716 25.1766 761.0623 25.1766 Q 808.5113 27.8079 855.9603 30.4391 Q 869.5288 31.1915 879.4846 23.9988 Q 889.4404 16.8061 889.4404 6.2510 Q 889.4404 -4.3042 879.4846 -11.4968 Q 869.5288 -18.6895 855.9603 -17.9371 Q 808.5113 -15.3059 761.0623 -12.6747 Z" fill="none" stroke-width="3.5958" stroke="rgba(0,0,0,1.00)"></path><path d="M 830.3343 29.0180 Q 820.2513 233.3849 671.9846 300.1645 Q 661.1475 305.0455 649.5152 306.9831 Q -17.6969 385.7329 -496.0211 368.7930 Q -500.0849 368.6491 -504.1223 368.1387 Q -807.3897 329.8021 -816.0032 6.2510 Q -807.3897 -317.3001 -504.1223 -355.6367 Q -500.0849 -356.1471 -496.0211 -356.2910 Q -17.6969 -373.2310 649.5152 -294.4811 Q 661.1475 -292.5435 671.9846 -287.6625 Q 820.1430 -220.9317 830.3285 -16.5157" fill="none" stroke-width="3.5958" stroke="rgba(0,0,0,1.00)"></path><path d="M 636.9978 6.2510 C 636.9978 -12.1441 624.2914 -25.6103 606.9342 -25.6103 C 589.5769 -25.6103 576.8706 -12.1441 576.8706 6.2510 C 576.8706 24.6461 589.5769 38.1123 606.9342 38.1123 C 624.2914 38.1123 636.9978 24.6461 636.9978 6.2510" fill="none" stroke-width="3.5958" stroke="rgba(0,0,0,1.00)"></path><path d="M 789.9605 23.0772 Q 825.7699 25.4165 861.5793 27.7559 Q 871.8193 28.4248 879.3329 22.0300 Q 886.8465 15.6352 886.8465 6.2510 Q 886.8465 -3.1333 879.3329 -9.5280 Q 871.8193 -15.9228 861.5793 -15.2539 Q 825.7699 -12.9145 789.9605 -10.5752 Q 771.5530 -10.5752 771.5530 6.2510 Q 771.5530 23.0772 789.9605 23.0772 Z" fill="none" stroke-width="3.5958" stroke="rgba(0,0,0,1.00)"></path><path d="M 745.2246 20.6440 Q 737.8415 168.0556 616.2699 207.6009 Q 607.4511 211.2775 597.9852 212.7369 Q 18.8252 293.4123 -370.4158 271.5078 Q -373.7228 271.3942 -377.0082 270.9912 Q -597.4992 247.8980 -604.5085 6.2510 Q -597.4992 -235.3960 -377.0082 -258.4892 Q -373.7228 -258.8922 -370.4158 -259.0058 Q 18.8252 -280.9103 597.9852 -200.2349 Q 607.4511 -198.7755 616.2699 -195.0990 Q 737.8415 -155.5536 745.2246 -8.1420" fill="none" stroke-width="3.5958" stroke="rgba(0,0,0,1.00)"></path></svg>