<svg xmlns="http://www.w3.org/2000/svg" preserveAspectRatio="xMidYMid meet" viewBox="-838 -582 1676 684" height="100%" width="100%"><defs><pattern patternUnits="userSpaceOnUse" height="1000" width="1000" viewBox="0,0,10,10" id="placeholder"><polygon points="0,0 0,5 5,5 5,0" fill="grey"/><polygon points="5,5 5,10 10,10 10,5" fill="grey"/></pattern></defs><path d="M 832.0568 -95.0921 L 832.0568 95.0921 L 500.0000 -480.7906 L -500.0000 -480.7906 L -832.0568 95.0921 L -832.0568 -95.0921 L -554.8837 -575.7906 L 554.8837 -575.7906 L 832.0568 -95.0921 Z" fill="none" stroke-width="10.0000" stroke="rgba(0,0,0,1.00)"/><path d="M 450.2556 -575.7902 L 450.2669 -563.3664 L 440.3070 -563.3075 Q 407.6529 -563.3075 374.9989 -563.3075 Q 374.9989 -528.3076 374.9989 -493.3078 Q 407.6529 -493.3078 440.3070 -493.3078 Q 440.3070 -528.3076 440.3070 -563.3075" fill="none" stroke-width="3.3282" stroke="rgba(0,0,0,1.00)"/><path d="M 617.1338 -467.8300 L 606.3654 -461.6339 L 611.2895 -452.9762 Q 627.6007 -424.6878 643.9119 -396.3995 Q 613.5913 -378.9165 583.2708 -361.4335 Q 566.9596 -389.7219 550.6484 -418.0102 Q 580.9689 -435.4932 611.2895 -452.9761" fill="none" stroke-width="3.3282" stroke="rgba(0,0,0,1.00)"/><path d="M 555.6179 -409.3916 L 544.8223 -403.0557" fill="none" stroke-width="3.3282" stroke="rgba(0,0,0,1.00)"/><path d="M 430.3583 -493.3078 L 430.2620 -480.7906" fill="none" stroke-width="3.3282" stroke="rgba(0,0,0,1.00)"/><path d="M 817.1955 -120.8652 L 806.4383 -114.6495 L 801.4121 -123.2484 Q 785.1009 -151.5368 768.7897 -179.8251 Q 738.4692 -162.3421 708.1486 -144.8591 Q 724.4598 -116.5708 740.7710 -88.2825 Q 771.0916 -105.7654 801.4121 -123.2484" fill="none" stroke-width="3.3282" stroke="rgba(0,0,0,1.00)"/><path d="M 735.8015 -96.9010 L 724.9098 -90.7319" fill="none" stroke-width="3.3282" stroke="rgba(0,0,0,1.00)"/><path d="M -450.2556 -575.7902 L -450.2669 -563.3664 L -440.3070 -563.3075 Q -407.6529 -563.3075 -374.9989 -563.3075 Q -374.9989 -528.3076 -374.9989 -493.3078 Q -407.6529 -493.3078 -440.3070 -493.3078 Q -440.3070 -528.3076 -440.3070 -563.3075" fill="none" stroke-width="3.3282" stroke="rgba(0,0,0,1.00)"/><path d="M -430.3583 -493.3078 L -430.2620 -480.7906" fill="none" stroke-width="3.3282" stroke="rgba(0,0,0,1.00)"/><path d="M 768.7897 -179.8251 L 643.9119 -396.3995" fill="none" stroke-width="3.3282" stroke="rgba(0,0,0,1.00)"/><path d="M 738.4692 -162.3421 L 613.5913 -378.9165" fill="none" stroke-width="3.3282" stroke="rgba(0,0,0,1.00)"/><path d="M 708.1486 -144.8591 L 583.2708 -361.4335" fill="none" stroke-width="3.3282" stroke="rgba(0,0,0,1.00)"/><path d="M 374.9989 -563.3075 L -374.9989 -563.3075" fill="none" stroke-width="3.3282" stroke="rgba(0,0,0,1.00)"/><path d="M 374.9989 -528.3076 L -374.9989 -528.3076" fill="none" stroke-width="3.3282" stroke="rgba(0,0,0,1.00)"/><path d="M -617.1338 -467.8300 L -606.3654 -461.6339 L -611.2895 -452.9762 Q -627.6007 -424.6878 -643.9119 -396.3995 Q -613.5913 -378.9165 -583.2708 -361.4335 Q -566.9596 -389.7219 -550.6484 -418.0102 Q -580.9689 -435.4932 -611.2895 -452.9761" fill="none" stroke-width="3.3282" stroke="rgba(0,0,0,1.00)"/><path d="M 374.9989 -493.3078 L -374.9989 -493.3078" fill="none" stroke-width="3.3282" stroke="rgba(0,0,0,1.00)"/><path d="M -555.6179 -409.3916 L -544.8223 -403.0557" fill="none" stroke-width="3.3282" stroke="rgba(0,0,0,1.00)"/><path d="M 500.0000 -480.7906 L 554.8837 -575.7906" fill="none" stroke-width="3.3282" stroke="rgba(0,0,0,1.00)"/><path d="M -817.1955 -120.8652 L -806.4383 -114.6495 L -801.4121 -123.2484 Q -785.1009 -151.5368 -768.7897 -179.8251 Q -738.4692 -162.3421 -708.1486 -144.8591 Q -724.4598 -116.5708 -740.7710 -88.2825 Q -771.0916 -105.7654 -801.4121 -123.2484" fill="none" stroke-width="3.3282" stroke="rgba(0,0,0,1.00)"/><path d="M -500.0000 -480.7906 L -554.8837 -575.7906" fill="none" stroke-width="3.3282" stroke="rgba(0,0,0,1.00)"/><path d="M -735.8015 -96.9010 L -724.9098 -90.7319" fill="none" stroke-width="3.3282" stroke="rgba(0,0,0,1.00)"/><path d="M -768.7897 -179.8251 L -643.9119 -396.3995" fill="none" stroke-width="3.3282" stroke="rgba(0,0,0,1.00)"/><path d="M -738.4692 -162.3421 L -613.5913 -378.9165" fill="none" stroke-width="3.3282" stroke="rgba(0,0,0,1.00)"/><path d="M -708.1486 -144.8591 L -583.2708 -361.4335" fill="none" stroke-width="3.3282" stroke="rgba(0,0,0,1.00)"/><path d="M 801.6249 -503.8623 L 801.4121 -123.2484" fill="none" stroke-width="3.3282" stroke="rgba(188,188,188,1.00)"/><path d="M 611.2895 -452.9762 C 665.2742 -494.9160 733.9133 -513.2667 801.6249 -503.8623" fill="none" stroke-width="3.3282" stroke="rgba(188,188,188,1.00)"/><path d="M -801.6250 -503.8623 L -801.4121 -123.2484" fill="none" stroke-width="3.3282" stroke="rgba(188,188,188,1.00)"/><path d="M -611.2895 -452.9762 C -665.2742 -494.9160 -733.9133 -513.2667 -801.6250 -503.8623" fill="none" stroke-width="3.3282" stroke="rgba(188,188,188,1.00)"/><path d="M 832.0568 -95.0921 L 749.7579 -47.6381" fill="none" stroke-width="3.3282" stroke="rgba(0,0,0,1.00)"/></svg>
