<svg xmlns="http://www.w3.org/2000/svg" preserveAspectRatio="xMidYMid meet" viewBox="-630.0024 -52.4998 1260.0041 365.551" height="100%" width="100%"><defs><pattern patternUnits="userSpaceOnUse" height="1000" width="1000" viewBox="0,0,10,10" id="placeholder"><polygon points="0,0 0,5 5,5 5,0" fill="grey"/><polygon points="5,5 5,10 10,10 10,5" fill="grey"/></pattern></defs><path d="M -624.9983 47.5529 Q 0.0017 47.5263 625.0017 47.4998 Q 624.9997 -0.0000 624.9976 -47.4998 Q -0.0024 -47.4732 -625.0024 -47.4467 Q -625.0003 0.0531 -624.9983 47.5529" fill="none" stroke-width="10.0000" stroke="rgba(0,0,0,1.00)"/><path d="M -495.6665 35.0193 Q -282.5963 35.0102 -69.5262 35.0012" fill="none" stroke-width="2.5000" stroke="rgba(0,0,0,1.00)"/><path d="M -495.6680 0.0194 Q -282.0692 0.0103 -68.4705 0.0013" fill="none" stroke-width="2.5000" stroke="rgba(0,0,0,1.00)"/><path d="M 495.6691 34.9771 Q 282.7121 34.9862 69.7551 34.9952" fill="none" stroke-width="2.5000" stroke="rgba(0,0,0,1.00)"/><path d="M -69.5250 35.0012 Q -34.7048 34.9997 0.1155 34.9982 Q 0.1140 -0.0017 0.1125 -35.0015 Q -34.7078 -35.0000 -69.5280 -34.9985 Q -69.5265 0.0013 -69.5250 35.0012" fill="none" stroke-width="2.5000" stroke="rgba(0,0,0,1.00)"/><path d="M -565.3070 35.0222 Q -530.4868 35.0207 -495.6665 35.0193 Q -495.6680 0.0194 -495.6695 -34.9804 Q -530.4897 -34.9790 -565.3100 -34.9775 Q -565.3085 0.0224 -565.3070 35.0222" fill="none" stroke-width="2.5000" stroke="rgba(0,0,0,1.00)"/><path d="M 495.6676 -0.0227 Q 282.7106 -0.0137 69.7536 -0.0046" fill="none" stroke-width="2.5000" stroke="rgba(0,0,0,1.00)"/><path d="M 565.3093 35.0120 Q 530.4890 35.0135 495.6688 35.0150 Q 495.6673 0.0151 495.6658 -34.9847 Q 530.4860 -34.9862 565.3063 -34.9877 Q 565.3078 0.0122 565.3093 35.0120" fill="none" stroke-width="2.5000" stroke="rgba(0,0,0,1.00)"/><path d="M -495.6695 -34.9804 Q -282.5993 -34.9895 -69.5292 -34.9985" fill="none" stroke-width="2.5000" stroke="rgba(0,0,0,1.00)"/><path d="M 69.7560 34.9952 Q 34.9357 34.9967 0.1155 34.9982 Q 0.1140 -0.0017 0.1125 -35.0015 Q 34.9327 -35.0030 69.7530 -35.0045 Q 69.7545 -0.0046 69.7560 34.9952" fill="none" stroke-width="2.5000" stroke="rgba(0,0,0,1.00)"/><path d="M 495.6661 -35.0226 Q 282.7091 -35.0135 69.7521 -35.0045" fill="none" stroke-width="2.5000" stroke="rgba(0,0,0,1.00)"/><path d="M -49.4030 311.8012 Q -1.6657 182.7089 -0.0098 34.9982" fill="none" stroke-width="2.5000" stroke="rgba(188,188,188,1.00)"/><path d="M 0.1155 34.9982 Q 1.9092 182.7088 49.6574 311.7970" fill="none" stroke-width="2.5000" stroke="rgba(188,188,188,1.00)"/><path d="M 575.2585 47.5019 L 49.6574 311.7970" fill="none" stroke-width="2.5000" stroke="rgba(188,188,188,1.00)"/><path d="M -575.2551 47.5054 L -49.4030 311.8012" fill="none" stroke-width="2.5000" stroke="rgba(188,188,188,1.00)"/><path d="M -555.3613 -34.9779 L -555.2656 -47.4951 L -625.0024 -47.4921 L -624.9983 47.5075 L -575.2551 47.5054 L -575.2669 35.0816 L -565.3070 35.0222" fill="none" stroke-width="2.5000" stroke="rgba(0,0,0,1.00)"/><path d="M 555.3577 -34.9873 L 555.2609 -47.5044 L 624.9976 -47.5074 L 625.0017 47.4922 L 575.2585 47.4943 L 575.2692 35.0705 L 565.3093 35.0120" fill="none" stroke-width="2.5000" stroke="rgba(0,0,0,1.00)"/></svg>
