<svg xmlns="http://www.w3.org/2000/svg" preserveAspectRatio="xMidYMid meet" viewBox="-785.5 -65.2 1571 800" height="100%" width="100%"><defs><pattern patternUnits="userSpaceOnUse" height="1000" width="1000" viewBox="0,0,10,10" id="placeholder"><polygon points="0,0 0,5 5,5 5,0" fill="grey"/><polygon points="5,5 5,10 10,10 10,5" fill="grey"/></pattern></defs><path d="M 783.4000 62.0000 Q 783.4000 0.0000 783.4000 -62.0000 Q 0.0000 -62.0000 -783.4000 -62.0000 Q -783.4000 0.0000 -783.4000 62.0000 Q 0.0000 62.0000 783.4000 62.0000 Z" fill="none" stroke-width="2.5000" stroke="rgba(0,0,0,1.00)"/><path d="M 733.6000 52.0000 Q 0.0000 52.0000 -733.6000 52.0000" fill="none" stroke-width="2.5000" stroke="rgba(0,0,0,1.00)"/><path d="M 733.6000 -52.0000 Q 0.0000 -52.0000 -733.6000 -52.0000" fill="none" stroke-width="2.5000" stroke="rgba(0,0,0,1.00)"/><path d="M -733.6000 52.0000 Q -733.6000 57.0000 -733.6000 62.0000" fill="none" stroke-width="2.5000" stroke="rgba(0,0,0,1.00)"/><path d="M -733.6000 -52.0000 Q -733.6000 -57.0000 -733.6000 -62.0000" fill="none" stroke-width="2.5000" stroke="rgba(0,0,0,1.00)"/><path d="M 733.6000 -52.0000 Q 733.6000 -57.0000 733.6000 -62.0000" fill="none" stroke-width="2.5000" stroke="rgba(0,0,0,1.00)"/><path d="M 733.6000 52.0000 Q 733.6000 57.0000 733.6000 62.0000" fill="none" stroke-width="2.5000" stroke="rgba(0,0,0,1.00)"/><rect x="-725" y="-28" width="710" height="56" fill="none" stroke-width="2.5000" stroke="rgba(0,0,0,1.00)"/><rect x="15" y="-28" width="710" height="56" fill="none" stroke-width="2.5000" stroke="rgba(0,0,0,1.00)"/><line x1="-370" y1="-28" x2="-370" y2="28" stroke-width="1.5000" stroke="rgba(0,0,0,1.00)"/><line x1="-725" y1="0" x2="-15" y2="0" stroke-width="1.5000" stroke="rgba(0,0,0,1.00)"/><line x1="370" y1="-28" x2="370" y2="28" stroke-width="1.5000" stroke="rgba(0,0,0,1.00)"/><line x1="15" y1="0" x2="725" y2="0" stroke-width="1.5000" stroke="rgba(0,0,0,1.00)"/><line x1="-15" y1="-52" x2="-15" y2="52" stroke-width="3.0" stroke="rgba(0,0,0,1.00)"/><line x1="15" y1="-52" x2="15" y2="52" stroke-width="3.0" stroke="rgba(0,0,0,1.00)"/><circle cx="-45" cy="0" r="6" fill="none" stroke-width="2.0000" stroke="rgba(0,0,0,1.00)"/><circle cx="45" cy="0" r="6" fill="none" stroke-width="2.0000" stroke="rgba(0,0,0,1.00)"/><line x1="-733.6" y1="-40" x2="-725" y2="-40" stroke-width="1.5000" stroke="rgba(188,188,188,1.00)"/><line x1="-733.6" y1="40" x2="-725" y2="40" stroke-width="1.5000" stroke="rgba(188,188,188,1.00)"/><line x1="733.6" y1="-40" x2="725" y2="-40" stroke-width="1.5000" stroke="rgba(188,188,188,1.00)"/><line x1="733.6" y1="40" x2="725" y2="40" stroke-width="1.5000" stroke="rgba(188,188,188,1.00)"/><line x1="-733.6" y1="-40" x2="-733.6" y2="-52" stroke-width="1.5000" stroke="rgba(188,188,188,1.00)"/><line x1="-733.6" y1="40" x2="-733.6" y2="52" stroke-width="1.5000" stroke="rgba(188,188,188,1.00)"/><line x1="733.6" y1="-40" x2="733.6" y2="-52" stroke-width="1.5000" stroke="rgba(188,188,188,1.00)"/><line x1="733.6" y1="40" x2="733.6" y2="52" stroke-width="1.5000" stroke="rgba(188,188,188,1.00)"/><line x1="-725" y1="28" x2="-725" y2="738" stroke-width="2.0" stroke="rgba(188,188,188,1.00)"/><path d="M -15 28 A 710 710 0 0 1 -725 738" fill="none" stroke-width="2.0" stroke="rgba(188,188,188,1.00)"/><line x1="725" y1="28" x2="725" y2="738" stroke-width="2.0" stroke="rgba(188,188,188,1.00)"/><path d="M 15 28 A 710 710 0 0 0 725 738" fill="none" stroke-width="2.0" stroke="rgba(188,188,188,1.00)"/></svg>
