<svg preserveAspectRatio="xMidYMid meet" viewBox="-462.2061 -568.3296 924.4121 1136.6592" height="100%" width="100%" xmlns="http://www.w3.org/2000/svg"><defs><pattern patternUnits="userSpaceOnUse" height="1000" width="1000" viewBox="0,0,10,10" id="placeholder"><polygon points="0,0 0,5 5,5 5,0" fill="grey"></polygon><polygon points="5,5 5,10 10,10 10,5" fill="grey"></polygon></pattern></defs><path d="M 372.9691 287.1209 Q -6.1076 304.8763 -385.1717 286.8541 Q -385.1717 254.7860 -385.1717 222.7180 Q -381.2120 222.7180 -377.2522 222.7180 Q -377.2522 218.3437 -377.2522 213.9693 Q -380.9719 213.9693 -384.6916 213.9693 Q -384.6916 -129.8194 -384.6916 -473.6080 L 375.3063 -473.6080 Q 375.3063 -129.8194 375.3063 213.9693 Q 372.5026 213.9693 369.6990 213.9693 Q 369.6990 218.3437 369.6990 222.7180 Q 371.3340 222.7180 372.9691 222.7180 Q 372.9691 254.9195 372.9691 287.1209" fill="rgba(247,247,247,1.00)" stroke-width="10.0000" stroke="rgba(0,0,0,1.00)"></path><path d="M -363.8049 411.6574 C -371.1544 370.5819 -375.1088 329.0262 -375.6384 287.3017" fill="none" stroke-width="2.0000" stroke="rgba(188,188,188,1.00)"></path><path d="M -377.2522 222.7180 Q -28.1694 222.7180 320.9133 222.7180" fill="none" stroke-width="2.0000" stroke="rgba(0,0,0,1.00)"></path><path d="M -377.2522 213.9693 Q -28.1694 213.9693 320.9133 213.9693" fill="none" stroke-width="2.0000" stroke="rgba(0,0,0,1.00)"></path><path d="M 369.6990 249.4802 Q 369.6990 257.5410 369.6990 265.6018 Q 368.2444 277.2618 345.3061 277.2618 Q 322.3678 277.2618 320.9133 265.6018 Q 320.9133 216.8435 320.9133 168.0853 Q 345.3061 168.0853 369.6990 168.0853 Q 369.6990 206.5547 369.6990 245.0242" fill="none" stroke-width="2.0000" stroke="rgba(0,0,0,1.00)"></path><path d="M 385.1717 277.6445 Q 376.8374 246.5403 368.5030 215.4361 Q 2.3491 313.5467 -363.8049 411.6574 Q -355.5050 442.6327 -347.2052 473.6080 Q 23.6071 392.9072 385.1717 277.6445" fill="none" stroke-width="2.0000" stroke="rgba(188,188,188,1.00)"></path></svg>