<svg preserveAspectRatio="xMidYMid meet" viewBox="-480.0000 -330.0000 960.0000 660.0000" height="100%" width="100%" xmlns="http://www.w3.org/2000/svg"><defs><pattern patternUnits="userSpaceOnUse" height="1000" width="1000" viewBox="0,0,10,10" id="placeholder"><polygon points="0,0 0,5 5,5 5,0" fill="grey"></polygon><polygon points="5,5 5,10 10,10 10,5" fill="grey"></polygon></pattern></defs><path d="M -350.0000 275.0000 L 350.0000 275.0000 Q 400.0000 275.0000 400.0000 225.0000 L 400.0000 -225.0000 Q 400.0000 -275.0000 350.0000 -275.0000 L -350.0000 -275.0000 Q -400.0000 -275.0000 -400.0000 -225.0000 L -400.0000 225.0000 Q -400.0000 275.0000 -350.0000 275.0000" fill="rgba(247,247,247,1.00)" stroke-width="10.0000" stroke="rgba(0,0,0,1.00)"></path><path d="M 60.8863 -156.2067 L 63.2259 -155.0000 L 65.5654 -156.2067 L 67.6228 -159.6794 L 69.1498 -165.0000 L 69.9624 -171.5275 L 69.9624 -178.4733 L 69.1498 -185.0000 L 67.6228 -190.3215 L 65.5654 -193.7940 L 63.2259 -195.0000 L 60.8863 -193.7940 L 58.8289 -190.3215 L 57.3019 -185.0000 L 56.4894 -178.4733 L 56.4894 -171.5275 L 57.3019 -165.0000 L 58.8289 -159.6794 L 60.8863 -156.2067" fill="none" stroke-width="2.0000" stroke="rgba(0,0,0,1.00)"></path><path d="M 65.5654 -193.7940 L 60.3952 -197.5530 L 57.5877 -199.0000 L 54.7803 -197.5530 L 52.3114 -193.3854 L 50.4790 -187.0000 L 49.5039 -179.1677 L 49.5039 -170.8327 L 50.4790 -163.0000 L 52.3114 -156.6154 L 54.7803 -152.4480 L 57.5877 -151.0000 L 60.3952 -152.4480 L 65.5654 -156.2067" fill="none" stroke-width="2.0000" stroke="rgba(0,0,0,1.00)"></path><path d="M 20.0997 -162.9685 L 57.5877 -151.0000" fill="none" stroke-width="2.0000" stroke="rgba(0,0,0,1.00)"></path><path d="M 49.8867 -0.0000 C 49.8867 -13.8071 61.0796 -25.0000 74.8867 -25.0000 C 88.6939 -25.0000 99.8867 -13.8071 99.8867 -0.0000 C 99.8867 13.8071 88.6939 25.0000 74.8867 25.0000 C 61.0796 25.0000 49.8867 13.8071 49.8867 -0.0000 Z" fill="none" stroke-width="2.0000" stroke="rgba(0,0,0,1.00)"></path><path d="M -26.4942 -160.9267 C -22.6084 -153.6114 -15.8710 -148.2283 -7.8785 -146.0530" fill="none" stroke-width="2.0000" stroke="rgba(0,0,0,1.00)"></path><path d="M 26.4942 -189.0733 C 21.2883 -198.8738 11.0974 -205.0000 -0.0000 -205.0000 C -11.0974 -205.0000 -21.2883 -198.8738 -26.4942 -189.0733" fill="none" stroke-width="2.0000" stroke="rgba(0,0,0,1.00)"></path><path d="M -69.9623 -175.0000 L -300.0000 -175.0000 Q -350.0000 -175.0000 -350.0000 -125.0000 L -350.0000 175.0000 Q -350.0000 225.0000 -300.0000 225.0000 L -65.0000 225.0000 Q -15.0000 225.0000 -15.0000 175.0000 L -15.0000 -125.0000 Q -15.0000 -145.4400 -29.3177 -160.0256" fill="none" stroke-width="2.0000" stroke="rgba(0,0,0,1.00)"></path><path d="M -0.0000 -183.0000 L -2.7362 -182.5180 L -5.1423 -181.1286 L -6.9282 -179.0000 L -7.8784 -176.3894 L -7.8784 30.6780 L -9.5263 32.5920 L -10.8329 36.0900 L -10.8329 39.8110 L -9.5263 43.3090 L -7.0707 46.1610 L -3.7622 48.0220 L -0.0000 48.6690 L 3.7622 48.0220 L 7.0707 46.1610 L 9.5263 43.3090 L 10.8329 39.8110 L 10.8329 36.0900 L 9.5263 32.5920 L 7.8785 30.6780 L 7.8785 -176.3894 L 6.9282 -179.0000 L 5.1423 -181.1286 L 2.7362 -182.5180 L -0.0000 -183.0000" fill="none" stroke-width="2.0000" stroke="rgba(0,0,0,1.00)"></path><path d="M 20.0997 -187.0324 L 57.5877 -199.0000" fill="none" stroke-width="2.0000" stroke="rgba(0,0,0,1.00)"></path><path d="M 69.8491 -175.0000 L 299.8867 -175.0000 Q 349.8867 -175.0000 349.8867 -125.0000 L 349.8867 175.0000 Q 349.8867 225.0000 299.8867 225.0000 L 64.8867 225.0000 Q 14.8868 225.0000 14.8868 175.0000 L 14.8868 -125.0000 Q 14.8868 -145.4400 29.2044 -160.0256" fill="none" stroke-width="2.0000" stroke="rgba(0,0,0,1.00)"></path><path d="M -65.5654 -156.2067 L -63.2259 -155.0000 L -60.8863 -156.2067 L -58.8289 -159.6794 L -57.3019 -165.0000 L -56.4894 -171.5275 L -56.4894 -178.4733 L -57.3019 -185.0000 L -58.8289 -190.3215 L -60.8863 -193.7940 L -63.2259 -195.0000 L -65.5654 -193.7940 L -67.6228 -190.3215 L -69.1498 -185.0000 L -69.9623 -178.4733 L -69.9623 -171.5275 L -69.1498 -165.0000 L -67.6228 -159.6794 L -65.5654 -156.2067" fill="none" stroke-width="2.0000" stroke="rgba(0,0,0,1.00)"></path><path d="M 7.8785 -146.0530 C 15.8710 -148.2283 22.6084 -153.6114 26.4942 -160.9267" fill="none" stroke-width="2.0000" stroke="rgba(0,0,0,1.00)"></path><path d="M -50.0000 -0.0000 C -50.0000 -13.8071 -61.1929 -25.0000 -75.0000 -25.0000 C -88.8071 -25.0000 -100.0000 -13.8071 -100.0000 -0.0000 C -100.0000 13.8071 -88.8071 25.0000 -75.0000 25.0000 C -61.1929 25.0000 -50.0000 13.8071 -50.0000 -0.0000 Z" fill="none" stroke-width="2.0000" stroke="rgba(0,0,0,1.00)"></path><path d="M 7.8785 -169.3477 C 11.2742 -173.6989 10.4997 -179.9790 6.1486 -183.3748 C 1.7974 -186.7705 -4.4827 -185.9960 -7.8785 -181.6449 C -10.6989 -178.0310 -10.6989 -172.9616 -7.8785 -169.3477" fill="none" stroke-width="2.0000" stroke="rgba(0,0,0,1.00)"></path><path d="M -20.0997 -187.0324 L -57.5877 -199.0000" fill="none" stroke-width="2.0000" stroke="rgba(0,0,0,1.00)"></path><path d="M -65.5654 -156.2067 L -60.3952 -152.4480 L -57.5877 -151.0000 L -54.7802 -152.4480 L -52.3114 -156.6154 L -50.4789 -163.0000 L -49.5039 -170.8327 L -49.5039 -179.1677 L -50.4789 -187.0000 L -52.3114 -193.3854 L -54.7802 -197.5530 L -57.5877 -199.0000 L -60.3952 -197.5530 L -65.5654 -193.7940" fill="none" stroke-width="2.0000" stroke="rgba(0,0,0,1.00)"></path><path d="M 7.8785 -158.4756 C 17.2787 -162.8268 21.3718 -173.9745 17.0207 -183.3748 C 12.6695 -192.7750 1.5218 -196.8681 -7.8785 -192.5170 C -14.5106 -189.4471 -18.7556 -182.8045 -18.7556 -175.4963 C -18.7556 -168.1881 -14.5106 -161.5455 -7.8785 -158.4756" fill="none" stroke-width="2.0000" stroke="rgba(0,0,0,1.00)"></path><path d="M -20.0997 -162.9685 L -57.5877 -151.0000" fill="none" stroke-width="2.0000" stroke="rgba(0,0,0,1.00)"></path></svg>