<svg preserveAspectRatio="xMidYMid meet" viewBox="-330.8958 -272.1794 661.7916 544.3588" height="100%" width="100%" xmlns="http://www.w3.org/2000/svg"><defs><pattern patternUnits="userSpaceOnUse" height="1000" width="1000" viewBox="0,0,10,10" id="placeholder"><polygon points="0,0 0,5 5,5 5,0" fill="grey"></polygon><polygon points="5,5 5,10 10,10 10,5" fill="grey"></polygon></pattern></defs><path d="M 144.7134 -226.8161 L -115.2866 -226.8162 L -115.2866 -206.8162 L -236.3597 -206.8161 L -236.3597 93.1839 L 23.6394 93.1839 L 265.7866 93.1839 L 265.7866 -206.8161 L 144.7134 -206.8161 L 144.7134 -226.8161 Z" fill="rgba(247,247,247,1.00)" stroke-width="2.0000" stroke="rgba(0,0,0,1.00)"></path><path d="M -51.5977 -62.4988 C -51.5977 -109.1842 -89.4436 -147.0301 -136.1290 -147.0301 C -182.8143 -147.0301 -220.6603 -109.1842 -220.6603 -62.4988 C -220.6603 -15.8135 -182.8143 22.0325 -136.1290 22.0325 C -89.4436 22.0325 -51.5977 -15.8135 -51.5977 -62.4988 Z" fill="rgba(247,247,247,1.00)" stroke-width="2.0000" stroke="rgba(0,0,0,1.00)"></path><path d="M -191.2807 -31.6229 C -177.8712 -5.5092 -148.1295 7.7944 -119.7247 0.3845 C -91.3198 -7.0254 -71.8670 -33.1624 -72.9227 -62.4988 C -72.9227 -97.4067 -101.2211 -125.7051 -136.1290 -125.7051 C -171.0368 -125.7051 -199.3352 -97.4067 -199.3352 -62.4988 C -199.3352 -51.6874 -196.5620 -41.0566 -191.2807 -31.6229" fill="none" stroke-width="2.0000" stroke="rgba(0,0,0,1.00)"></path><path d="M -65.6844 -58.6107 L -63.0529 -60.2183 C -67.5188 -30.7176 -66.4949 -0.6457 -60.0327 28.4829 C -54.9675 57.8231 -39.6064 84.3959 -16.7090 103.4279 C -41.4149 86.4623 -57.8228 59.8664 -61.9011 30.1750 C -68.9955 1.1175 -70.2812 -29.0550 -65.6844 -58.6107 Z" fill="rgba(247,247,247,1.00)" stroke-width="2.0000" stroke="rgba(0,0,0,1.00)"></path><path d="M -185.2565 113.6676 C -180.7838 111.9048 -177.2523 108.3515 -175.5172 103.8680 C -182.5099 96.9184 -184.7855 86.5182 -181.3342 77.2833 C -179.4434 75.0741 -176.6810 73.8023 -173.7732 73.8023 C -170.8654 73.8023 -168.1030 75.0741 -166.2122 77.2833 C -164.8974 72.8477 -161.5462 69.3051 -157.1905 67.7461 C -154.1009 66.3158 -150.4326 67.5638 -148.8562 70.5814 C -146.1547 80.4926 -149.3023 91.0785 -156.9799 97.9036 C -160.8340 101.1022 -163.7775 105.2595 -165.5143 109.9572 C -168.4566 109.0104 -171.1988 107.5281 -173.6026 105.5850 C -175.6227 110.5438 -179.6505 114.4136 -184.6861 116.2337 L -185.2565 113.6676 Z" fill="rgba(247,247,247,1.00)" stroke-width="2.0000" stroke="rgba(0,0,0,1.00)"></path><path d="M -205.1742 -24.3739 L -207.1173 -23.6067" fill="none" stroke-width="2.0000" stroke="rgba(0,0,0,1.00)"></path><path d="M -205.4977 -46.4070 L -204.1820 -44.0605 C -205.5865 -37.5966 -205.9216 -30.9462 -205.1742 -24.3739 C -202.9883 -10.5268 -199.2205 3.0236 -193.9448 16.0115 C -189.6366 31.3435 -187.8775 47.2794 -188.7378 63.1820 C -193.5754 128.7452 -161.9154 191.6446 -106.3736 226.8162 C -165.3533 194.7178 -198.7155 129.8261 -190.5016 63.1820 C -190.0310 47.7412 -191.7449 32.3113 -195.5924 17.3502 C -200.4956 4.0191 -204.3490 -9.6749 -207.1173 -23.6067 C -207.8459 -31.2440 -207.2986 -38.9493 -205.4977 -46.4070 Z" fill="none" stroke-width="2.0000" stroke="rgba(0,0,0,1.00)"></path><path d="M -188.5382 53.4129 L -188.5826 51.2583 C -183.0492 49.9808 -178.0889 46.9205 -174.4648 42.5483 C -184.4510 37.1144 -190.4935 26.4891 -190.0581 15.1286 C -189.4799 11.2773 -190.4918 7.3564 -192.8614 4.2659 C -183.2810 -2.9919 -169.6867 -1.4317 -161.9996 7.8078 C -156.5296 14.4962 -154.5048 23.3589 -156.5276 31.7591 C -158.3570 35.7260 -162.4958 38.1012 -166.8437 37.6797 C -166.1373 39.2356 -166.3706 41.0571 -167.4464 42.3848 C -168.5222 43.7125 -170.2557 44.3184 -171.9243 43.9499 C -176.0366 49.1266 -181.9880 52.5164 -188.5382 53.4129 Z" fill="rgba(247,247,247,1.00)" stroke-width="2.0000" stroke="rgba(0,0,0,1.00)"></path><path d="M -174.4648 42.5483 L -171.9243 43.9499" fill="none" stroke-width="2.0000" stroke="rgba(0,0,0,1.00)"></path><path d="M -192.8614 4.2659 C -179.4537 10.7383 -169.8325 23.0945 -166.8437 37.6797" fill="none" stroke-width="2.0000" stroke="rgba(0,0,0,1.00)"></path><path d="M -166.2122 77.2833 C -169.4801 87.9689 -169.2355 99.4209 -165.5143 109.9572" fill="none" stroke-width="2.0000" stroke="rgba(0,0,0,1.00)"></path><path d="M -173.6026 105.5850 L -175.5172 103.8680" fill="none" stroke-width="2.0000" stroke="rgba(0,0,0,1.00)"></path><path d="M -159.2058 175.2591 L -160.2429 173.6886 C -155.6746 169.7554 -153.2082 163.9124 -153.5765 157.8954 C -155.3867 154.2804 -159.7830 152.8149 -163.4002 154.6208 C -171.7756 156.4792 -180.4824 153.4498 -185.8954 146.7940 C -183.7053 142.1659 -179.3369 138.9475 -174.2676 138.2274 C -169.1984 137.5074 -164.1065 139.3820 -160.7143 143.2172 C -159.0482 148.0087 -155.5651 151.9531 -151.0165 154.1992 C -149.9689 154.6872 -149.2990 155.7381 -149.2990 156.8937 C -149.2990 158.0494 -149.9689 159.1003 -151.0165 159.5882 C -152.0410 165.5395 -154.9050 171.0200 -159.2058 175.2591 Z" fill="rgba(247,247,247,1.00)" stroke-width="2.0000" stroke="rgba(0,0,0,1.00)"></path><path d="M -151.0165 154.1992 C -153.8378 152.6865 -157.1986 152.5574 -160.1276 153.8493" fill="none" stroke-width="2.0000" stroke="rgba(0,0,0,1.00)"></path><path d="M -151.0165 159.5882 L -153.5765 157.8954" fill="none" stroke-width="2.0000" stroke="rgba(0,0,0,1.00)"></path><path d="M -185.8954 146.7940 C -176.5644 143.3880 -166.2161 144.1868 -157.5183 148.9842" fill="none" stroke-width="2.0000" stroke="rgba(0,0,0,1.00)"></path><path d="M -65.4851 -11.9982 C -58.7767 -10.3902 -51.7833 -10.3902 -45.0750 -11.9982 C -43.6713 -10.8644 -41.7006 -10.7527 -40.1779 -11.7208 C -38.6552 -12.6889 -37.9200 -14.5207 -38.3511 -16.2728 C -34.2332 -16.1839 -30.4069 -18.3899 -28.4206 -21.9981 C -26.4343 -25.6063 -26.6169 -30.0193 -28.8946 -33.4510 C -32.8750 -42.2471 -42.2611 -47.2795 -51.7902 -45.7264 C -55.4062 -43.8865 -59.5054 -43.2184 -63.5185 -43.8149 C -63.7296 -32.2160 -58.0008 -21.3130 -48.3291 -14.9068 C -53.9661 -13.2175 -59.9746 -13.2175 -65.6115 -14.9068" fill="rgba(247,247,247,1.00)" stroke-width="2.0000" stroke="rgba(0,0,0,1.00)"></path><path d="M -38.3511 -16.2728 C -41.9630 -28.8889 -51.2784 -39.0832 -63.5185 -43.8149" fill="none" stroke-width="2.0000" stroke="rgba(0,0,0,1.00)"></path><path d="M -48.3291 -14.9068 L -45.0750 -11.9982" fill="none" stroke-width="2.0000" stroke="rgba(0,0,0,1.00)"></path><path d="M -54.7107 -44.5267 C -51.0787 -47.6745 -48.4099 -51.7843 -47.0117 -56.3826 C -50.1547 -53.5825 -53.6003 -51.1416 -57.2846 -49.1053 C -62.3363 -45.6190 -68.0254 -43.1619 -74.0268 -41.8747 C -77.5129 -41.7251 -80.9033 -40.6896 -83.8780 -38.8659 C -84.1947 -47.7778 -77.9412 -55.5792 -69.1740 -57.2096 C -65.5231 -58.3001 -62.2470 -60.3834 -59.7110 -63.2271 C -58.4488 -65.1619 -56.2949 -66.3286 -53.9847 -66.3286 C -51.6745 -66.3286 -49.5205 -65.1619 -48.2583 -63.2271 L -38.6012 -65.7505 C -40.3096 -63.3584 -42.2016 -61.1031 -44.2602 -59.0048 C -44.8408 -53.7326 -47.5637 -48.9311 -51.7902 -45.7264 L -54.7107 -44.5267 Z" fill="rgba(247,247,247,1.00)" stroke-width="2.0000" stroke="rgba(0,0,0,1.00)"></path><path d="M -48.2583 -63.2271 C -61.3699 -57.0847 -73.3991 -48.8576 -83.8780 -38.8659" fill="none" stroke-width="2.0000" stroke="rgba(0,0,0,1.00)"></path><path d="M -44.2602 -59.0048 L -47.0117 -56.3826" fill="none" stroke-width="2.0000" stroke="rgba(0,0,0,1.00)"></path><path d="M -54.3383 49.9162 C -46.4814 49.5906 -39.0006 46.4633 -33.2496 41.1003 C -23.9242 39.6763 -17.2575 31.3268 -17.9330 21.9175 C -19.2566 8.0996 -30.4841 -2.6743 -44.3449 -3.4272 C -50.4746 11.8368 -46.7703 29.2918 -34.9695 40.7506 C -41.0754 44.5645 -47.9771 46.9218 -55.1404 47.6399 L -54.3383 49.9162 Z" fill="rgba(247,247,247,1.00)" stroke-width="2.0000" stroke="rgba(0,0,0,1.00)"></path><path d="M -33.2496 41.1003 L -34.9695 40.7506" fill="none" stroke-width="2.0000" stroke="rgba(0,0,0,1.00)"></path><path d="M -44.3449 -3.4272 C -35.0801 9.4465 -31.1086 25.3845 -33.2496 41.1003" fill="none" stroke-width="2.0000" stroke="rgba(0,0,0,1.00)"></path><path d="M -41.2391 72.4466 C -36.7847 66.8087 -29.6628 63.9727 -22.5521 65.0054 C -20.6359 65.8615 -19.1944 67.5187 -18.6121 69.5351 C -18.0299 71.5515 -18.3660 73.7220 -19.5308 75.4679 C -19.9258 76.3068 -19.9142 77.2805 -19.4996 78.1098 C -19.0849 78.9392 -18.3129 79.5326 -17.4048 79.7200 C -15.7502 80.1031 -14.3219 81.1410 -13.4466 82.5964 C -12.5712 84.0517 -12.3238 85.7999 -12.7610 87.4410 C -19.4639 89.6842 -26.8491 87.3580 -31.0564 81.6782 L -37.2751 81.6782 L -38.5047 79.9889 L -31.7837 79.9889 C -35.7522 78.7165 -39.1164 76.0330 -41.2391 72.4466 Z" fill="rgba(247,247,247,1.00)" stroke-width="2.0000" stroke="rgba(0,0,0,1.00)"></path><path d="M -19.8190 76.7566 C -26.1348 72.6083 -33.8104 71.0638 -41.2391 72.4466" fill="none" stroke-width="2.0000" stroke="rgba(0,0,0,1.00)"></path><path d="M -31.7837 79.9889 L -31.0564 81.6782" fill="none" stroke-width="2.0000" stroke="rgba(0,0,0,1.00)"></path><path d="M -205.1742 -24.3739 C -200.6576 -26.5299 -195.3770 -26.3677 -191.0011 -23.9386 C -186.6253 -21.5095 -183.6949 -17.1137 -183.1360 -12.1401 C -187.0367 -2.2439 -194.7337 5.6810 -204.5120 9.8685 C -214.2902 14.0561 -225.3373 14.1584 -235.1914 10.1527 C -230.2561 -4.1434 -220.2737 -16.1472 -207.1173 -23.6067" fill="rgba(247,247,247,1.00)" stroke-width="2.0000" stroke="rgba(0,0,0,1.00)"></path><path d="M -183.1360 -12.1401 C -202.9278 -12.7573 -221.9809 -4.5978 -235.1914 10.1527" fill="none" stroke-width="2.0000" stroke="rgba(0,0,0,1.00)"></path><path d="M 3.6551 -21.2540 C 4.5723 -44.1568 -8.8809 -65.2045 -30.0519 -73.9891 C -41.6249 -79.7697 -55.0269 -80.6900 -67.2815 -76.5457 C -72.9525 -75.0306 -78.9990 -75.9636 -83.9494 -79.1177 L -96.9718 -72.4442 C -74.0092 -63.5056 -53.5719 -49.1037 -37.4301 -30.4859 C -26.0981 -20.8162 -10.7243 -17.3617 3.6551 -21.2540 Z" fill="rgba(247,247,247,1.00)" stroke-width="2.0000" stroke="rgba(0,0,0,1.00)"></path><path d="M -89.6572 -75.6902 C -55.2155 -63.9899 -23.4812 -45.4769 3.6551 -21.2540" fill="none" stroke-width="2.0000" stroke="rgba(0,0,0,1.00)"></path><path d="M -90.2825 -75.7552 L -86.9328 -74.7866 L -84.8412 -70.4386 C -70.9184 -65.1773 -61.1695 -52.4935 -59.6670 -37.6859 C -57.5770 -27.8739 -60.2651 -17.6521 -66.9114 -10.1375 C -73.5578 -2.6229 -83.3747 1.2937 -93.3685 0.4181 C -97.5839 -5.8667 -99.2652 -13.5137 -98.0746 -20.9869 C -96.6808 -25.6643 -98.8607 -30.6654 -103.2361 -32.8280 C -107.5200 -39.5041 -108.2913 -47.8460 -105.3042 -55.1944 C -102.3171 -62.5429 -95.9444 -67.9807 -88.2175 -69.7744 L -90.2825 -75.7552 Z" fill="rgba(247,247,247,1.00)" stroke-width="2.0000" stroke="rgba(0,0,0,1.00)"></path><path d="M -216.2981 -101.0866 C -217.8136 -94.9860 -222.3263 -90.0742 -228.2769 -88.0483 C -246.8715 -85.3472 -261.4247 -70.6504 -263.9432 -52.0301 C -266.4617 -33.4099 -256.3356 -15.3751 -239.1266 -7.8313 C -230.2041 -17.1390 -226.7484 -30.4088 -229.9977 -42.8862 C -231.6106 -46.0337 -231.7018 -49.7444 -230.2455 -52.9673 C -228.7891 -56.1902 -225.9439 -58.5740 -222.5158 -59.4436 C -214.1163 -64.8095 -211.5213 -75.8905 -216.6649 -84.4280 C -218.5780 -89.0710 -217.8655 -94.3823 -214.7962 -98.3569 L -216.2981 -101.0866 Z" fill="rgba(247,247,247,1.00)" stroke-width="2.0000" stroke="rgba(0,0,0,1.00)"></path><path d="M -275.2840 -89.0298 C -265.1141 -84.0480 -253.3727 -83.3460 -242.6816 -87.0806 C -231.9905 -90.8151 -223.2400 -98.6753 -218.3840 -108.9059 C -217.6522 -113.4682 -214.6376 -117.3391 -210.3936 -119.1660 L -212.2966 -121.2659 C -214.0170 -118.3079 -217.5423 -116.9168 -220.8190 -117.9028 C -230.9256 -127.6036 -246.1160 -129.7246 -258.4933 -123.1632 C -270.8705 -116.6018 -277.6406 -102.8390 -275.2840 -89.0298 Z" fill="rgba(247,247,247,1.00)" stroke-width="2.0000" stroke="rgba(0,0,0,1.00)"></path><path d="M -138.6834 -77.0155 L -136.4723 -77.5367 L -136.4723 -66.8610 C -110.8678 -35.5443 -109.0688 8.9336 -132.0604 42.2159 C -151.8249 29.6486 -165.7193 9.6754 -170.6287 -13.2260 C -172.9505 -32.2060 -164.0065 -50.8002 -147.7288 -60.8336 C -141.5966 -63.7737 -137.9754 -70.2520 -138.6834 -77.0155 Z" fill="rgba(247,247,247,1.00)" stroke-width="2.0000" stroke="rgba(0,0,0,1.00)"></path><path d="M -214.7393 -126.3648 C -219.8091 -126.4108 -224.4135 -129.3304 -226.6170 -133.8966 C -228.8206 -138.4628 -228.2414 -143.8839 -225.1230 -147.8815 C -231.4466 -149.2114 -236.4214 -154.0940 -237.8694 -160.3917 C -239.3174 -166.6893 -236.9747 -173.2545 -231.8670 -177.2128 C -211.4268 -177.3442 -194.5658 -161.2409 -193.7578 -140.8163 C -199.2726 -138.4411 -203.8066 -134.2472 -206.6036 -128.9339 C -208.7853 -126.8876 -211.7780 -125.9425 -214.7393 -126.3648 Z" fill="rgba(247,247,247,1.00)" stroke-width="2.0000" stroke="rgba(0,0,0,1.00)"></path><path d="M -225.1230 -147.8815 C -214.2035 -148.6235 -203.3045 -146.1684 -193.7578 -140.8163" fill="none" stroke-width="2.0000" stroke="rgba(0,0,0,1.00)"></path><path d="M -190.0782 -88.2532 C -199.1363 -111.9103 -204.9662 -136.6798 -207.4107 -161.8935 C -175.3432 -152.1263 -151.7330 -124.8139 -146.7067 -91.6710 C -147.1470 -87.5947 -149.7534 -84.0736 -153.5233 -82.4621 C -157.2933 -80.8506 -161.6395 -81.3998 -164.8902 -83.8983 C -168.6561 -80.7121 -173.6396 -79.3570 -178.5005 -80.1974 C -183.3614 -81.0378 -187.6006 -83.9875 -190.0782 -88.2532 Z" fill="rgba(247,247,247,1.00)" stroke-width="2.0000" stroke="rgba(0,0,0,1.00)"></path><path d="M -164.8902 -83.8983 C -172.7176 -112.8849 -187.2874 -139.6102 -207.4107 -161.8935" fill="none" stroke-width="2.0000" stroke="rgba(0,0,0,1.00)"></path><path d="M -132.0604 42.2159 C -140.5981 6.4881 -142.0967 -30.5604 -136.4723 -66.8610" fill="none" stroke-width="2.0000" stroke="rgba(0,0,0,1.00)"></path><path d="M -169.2794 -31.9987 C -174.1302 -25.0017 -181.7091 -20.3771 -190.1500 -19.2634 C -198.5909 -18.1497 -207.1099 -20.6504 -213.6095 -26.1499 C -221.4643 -33.5624 -225.1681 -44.3658 -223.5134 -55.0384 C -221.8587 -65.7110 -215.0576 -74.8858 -205.3270 -79.5718 C -191.6858 -78.2196 -177.9542 -81.0188 -165.9308 -87.6027 C -153.8141 -91.5400 -140.6001 -90.1993 -129.5212 -83.9087 C -136.7140 -62.7089 -150.6859 -44.4666 -169.2794 -31.9987 Z" fill="rgba(247,247,247,1.00)" stroke-width="2.0000" stroke="rgba(0,0,0,1.00)"></path><path d="M -129.5212 -83.9087 C -163.8798 -76.0587 -193.9521 -55.4026 -213.6095 -26.1499" fill="none" stroke-width="2.0000" stroke="rgba(0,0,0,1.00)"></path><path d="M -190.0782 -88.2532 C -197.9435 -86.4563 -206.1779 -88.8712 -211.8271 -94.6314 C -217.4762 -100.3916 -219.7304 -108.6713 -217.7808 -116.5003 C -216.6314 -120.9962 -212.8789 -124.3519 -208.2829 -124.9937 C -200.6752 -123.9219 -193.5894 -120.5094 -188.0083 -115.2294 C -182.6764 -106.7642 -183.5172 -95.8059 -190.0782 -88.2532 Z" fill="rgba(247,247,247,1.00)" stroke-width="2.0000" stroke="rgba(0,0,0,1.00)"></path><path d="M -188.0083 -115.2294 C -198.9911 -113.8370 -208.7966 -107.6609 -214.7962 -98.3569" fill="none" stroke-width="2.0000" stroke="rgba(0,0,0,1.00)"></path><path d="M -275.2840 -89.0298 C -257.3464 -100.5659 -238.0264 -109.7954 -217.7808 -116.5003" fill="none" stroke-width="2.0000" stroke="rgba(0,0,0,1.00)"></path><path d="M -148.9341 -30.7181 C -133.6729 -32.1771 -118.7027 -35.8343 -104.4879 -41.5763 C -100.3625 -42.9378 -97.3355 -46.4790 -96.6326 -50.7660 C -95.9298 -55.0530 -97.6675 -59.3754 -101.1422 -61.9829 C -98.2749 -67.2054 -97.3880 -73.2870 -98.6444 -79.1108 L -100.6660 -80.1429 C -100.5898 -74.2403 -101.5472 -68.3698 -103.4948 -62.7973 C -112.1638 -69.2944 -124.2717 -68.5174 -132.0391 -60.9653 C -140.4312 -52.6937 -146.2918 -42.2014 -148.9341 -30.7181 Z" fill="rgba(247,247,247,1.00)" stroke-width="2.0000" stroke="rgba(0,0,0,1.00)"></path><path d="M -93.3685 0.4181 C -78.0380 -19.9459 -76.0240 -47.3906 -88.2175 -69.7744" fill="none" stroke-width="2.0000" stroke="rgba(0,0,0,1.00)"></path><path d="M -25.0619 -123.5225 C -24.8484 -114.5147 -28.5832 -105.8636 -35.2854 -99.8414 C -41.1165 -98.1152 -45.9458 -94.0036 -48.5800 -88.5225 C -56.2844 -77.5754 -69.4978 -71.9013 -82.7412 -73.8529 C -74.3998 -87.9764 -73.9517 -105.4083 -81.5564 -119.9418 C -70.9675 -120.0233 -61.1017 -114.5802 -55.5239 -105.5791 C -52.0329 -104.0049 -48.0232 -104.0616 -44.5780 -105.7338 C -41.1329 -107.4060 -38.6078 -110.5212 -37.6848 -114.2379 C -37.4012 -117.2162 -35.8612 -119.9323 -33.4511 -121.7050 C -31.0410 -123.4777 -27.9895 -124.1388 -25.0619 -123.5225 Z" fill="rgba(247,247,247,1.00)" stroke-width="2.0000" stroke="rgba(0,0,0,1.00)"></path><path d="M -25.0619 -123.5225 C -34.8274 -103.0767 -54.7307 -89.3682 -77.3146 -87.5334" fill="none" stroke-width="2.0000" stroke="rgba(0,0,0,1.00)"></path><path d="M -203.8068 -86.8295 C -191.3702 -80.3755 -178.4466 -74.9066 -165.1549 -70.4730 C -156.5913 -67.7214 -147.2101 -70.2567 -141.1983 -76.9474 C -136.2212 -76.5467 -131.5358 -79.3399 -129.5212 -83.9087 C -128.6679 -91.0445 -132.9966 -97.7826 -139.8413 -99.9731 C -162.0401 -106.0133 -185.7884 -101.1335 -203.8068 -86.8295 Z" fill="rgba(247,247,247,1.00)" stroke-width="2.0000" stroke="rgba(0,0,0,1.00)"></path><path d="M -141.1983 -76.9474 C -162.4876 -76.5194 -183.6844 -79.8651 -203.8068 -86.8295" fill="none" stroke-width="2.0000" stroke="rgba(0,0,0,1.00)"></path><path d="M -219.9124 -88.4220 C -244.6879 -69.5594 -252.7264 -35.8433 -239.1266 -7.8313" fill="none" stroke-width="2.0000" stroke="rgba(0,0,0,1.00)"></path><path d="M -101.1422 -61.9829 C -116.0971 -50.1410 -132.0930 -39.6767 -148.9341 -30.7181" fill="none" stroke-width="2.0000" stroke="rgba(0,0,0,1.00)"></path><path d="M -147.6617 -99.1080 C -138.4576 -92.5342 -127.0497 -89.8155 -115.8700 -91.5315 C -106.9025 -82.3791 -95.3364 -76.2071 -82.7412 -73.8529 C -75.0695 -86.8425 -74.0379 -102.7079 -79.9628 -116.5816 C -85.8877 -130.4553 -98.0619 -140.6811 -112.7502 -144.1215 C -122.1570 -136.4306 -133.0213 -130.7205 -144.6905 -127.3343 C -150.8085 -125.7506 -155.3012 -120.5363 -155.9628 -114.2513 C -156.6244 -107.9664 -153.3159 -101.9309 -147.6617 -99.1080 Z" fill="rgba(247,247,247,1.00)" stroke-width="2.0000" stroke="rgba(0,0,0,1.00)"></path><path d="M -115.8700 -91.5315 C -112.6319 -108.8617 -111.5838 -126.5300 -112.7502 -144.1215" fill="none" stroke-width="2.0000" stroke="rgba(0,0,0,1.00)"></path><path d="M -115.2866 -206.8162 L 144.7134 -206.8161" fill="none" stroke-width="2.0000" stroke="rgba(0,0,0,1.00)"></path><path d="M 23.6394 -206.8162 L 23.6394 93.1838" fill="none" stroke-width="2.0000" stroke="rgba(0,0,0,1.00)"></path><path d="M 3.6394 -206.8162 L 3.6394 93.1838" fill="none" stroke-width="2.0000" stroke="rgba(0,0,0,1.00)"></path><path d="M 196.9477 -56.8161 C 196.9477 -88.4891 171.2717 -114.1651 139.5987 -114.1651 C 107.9257 -114.1651 82.2496 -88.4891 82.2496 -56.8161 C 82.2496 -25.1431 107.9257 0.5330 139.5987 0.5330 C 171.2717 0.5330 196.9477 -25.1431 196.9477 -56.8161 Z" fill="rgba(247,247,247,1.00)" stroke-width="2.0000" stroke="rgba(0,0,0,1.00)"></path><path d="M 188.4663 -56.8161 C 188.4663 -83.8049 166.5875 -105.6837 139.5987 -105.6837 C 112.6099 -105.6837 90.7311 -83.8049 90.7311 -56.8161 C 90.7311 -29.8272 112.6099 -7.9485 139.5987 -7.9485 C 166.5875 -7.9485 188.4663 -29.8272 188.4663 -56.8161 Z" fill="none" stroke-width="2.0000" stroke="rgba(0,0,0,1.00)"></path><path d="M 104.8986 -49.9732 C 101.3878 -48.3922 96.9511 -48.0653 93.0206 -49.0981 L 96.5060 -49.3131 C 99.5114 -49.2575 102.4743 -49.8087 105.0162 -50.8963 C 111.0946 -53.3430 117.5527 -55.3282 124.2735 -56.8161 C 114.1786 -70.8812 97.7249 -82.4082 77.3119 -89.7160 L 78.2016 -91.0552 C 96.0780 -84.7983 111.9133 -76.1674 124.7616 -65.6780 C 116.0653 -83.7341 99.6580 -99.6449 77.6229 -111.3902 C 69.8004 -114.5418 62.7103 -118.4611 56.5838 -123.0203 C 56.2981 -123.3486 56.3291 -123.7627 56.6624 -124.0698 C 56.9957 -124.3768 57.5700 -124.5203 58.1178 -124.4335 C 65.8685 -119.0511 74.4323 -114.2349 83.6683 -110.0643 C 102.9032 -99.2075 118.6929 -85.8228 130.0824 -70.7199 C 126.1853 -87.9283 120.3912 -104.9149 112.7488 -121.5372 L 114.8417 -121.5506 C 119.6315 -113.7257 123.5135 -105.6598 126.4524 -97.4263 L 124.7429 -119.8619 L 128.5181 -118.4626 C 129.1972 -102.9559 131.9647 -87.5235 136.7863 -72.3576 C 138.0519 -77.4883 141.0451 -82.3533 145.5333 -86.5743 C 146.5027 -94.8594 148.7022 -103.0573 152.0983 -111.0437 C 151.6765 -112.8068 150.1206 -114.3551 147.8537 -115.2674 L 157.6072 -113.4596 C 155.1766 -113.1547 153.3489 -111.7583 153.1930 -110.0872 L 147.8591 -88.1531 L 158.1389 -96.2858 C 164.0836 -116.4148 174.0356 -135.9042 187.7219 -154.2195 L 189.7805 -153.5137 C 178.1268 -135.7666 168.9899 -117.3093 162.4934 -98.3909 C 171.5290 -104.6120 182.2361 -109.6075 194.0380 -113.1083 C 198.2558 -114.7328 201.4431 -117.3561 202.9852 -120.4722 L 204.9144 -120.5581 C 201.9260 -115.3428 195.8570 -111.2013 188.1799 -109.1384 C 178.4053 -105.6411 169.4972 -101.1307 161.7785 -95.7706 L 149.4807 -68.1416 C 154.9115 -70.4033 159.5320 -73.4554 163.0063 -77.0760 L 164.7367 -75.6220 L 150.6576 -62.9067 C 157.2425 -66.0833 164.6056 -68.4458 172.4058 -69.8846 C 173.4796 -68.7678 175.0525 -67.9121 176.8940 -67.4428 C 170.9007 -65.2295 165.2899 -62.5709 160.1655 -59.5162 L 174.2987 -63.6590 C 177.8095 -65.2401 182.2462 -65.5670 186.1768 -64.5342 L 182.6914 -64.3191 C 179.6860 -64.3748 176.7231 -63.8236 174.1812 -62.7360 C 168.1028 -60.2893 161.6447 -58.3040 154.9238 -56.8161 C 165.0188 -42.7510 181.4725 -31.2241 201.8855 -23.9162 L 200.9958 -22.5771 C 183.1194 -28.8339 167.2841 -37.4648 154.4357 -47.9542 C 163.1321 -29.8981 179.5394 -13.9874 201.5745 -2.2420 C 209.3970 0.9095 216.4871 4.8289 222.6136 9.3881 C 222.8993 9.7164 222.8683 10.1305 222.5350 10.4375 C 222.2017 10.7445 221.6274 10.8881 221.0796 10.8012 C 213.3289 5.4188 204.7651 0.6027 195.5291 -3.5680 C 176.2942 -14.4248 160.5045 -27.8094 149.1150 -42.9124 C 153.0121 -25.7040 158.8062 -8.7174 166.4486 7.9049 L 164.3557 7.9183 C 159.5659 0.0934 155.6839 -7.9724 152.7450 -16.2060 L 154.4545 6.2296 L 150.6792 4.8304 C 150.0002 -10.6764 147.2326 -26.1088 142.4110 -41.2747 C 141.1455 -36.1440 138.1522 -31.2790 133.6640 -27.0580 C 132.6947 -18.7729 130.4952 -10.5749 127.0991 -2.5885 C 127.5208 -0.8255 129.0768 0.7228 131.3436 1.6352 L 121.5902 -0.1726 C 124.0208 -0.4776 125.8485 -1.8740 126.0043 -3.5450 L 131.3383 -25.4792 L 121.0584 -17.3465 C 115.1138 2.7825 105.1618 22.2720 91.4754 40.5872 L 89.4169 39.8815 C 101.0706 22.1344 110.2074 3.6770 116.7040 -15.2414 C 107.6684 -9.0203 96.9613 -4.0248 85.1594 -0.5239 C 80.9416 1.1005 77.7542 3.7239 76.2122 6.8399 L 74.2830 6.9258 C 77.2714 1.7105 83.3403 -2.4309 91.0175 -4.4939 C 100.7921 -7.9911 109.7001 -12.5016 117.4189 -17.8617 L 129.7167 -45.4906 C 124.2858 -43.2290 119.6653 -40.1769 116.1911 -36.5562 L 114.4607 -38.0103 L 128.5398 -50.7256 C 121.9549 -47.5489 114.5918 -45.1865 106.7915 -43.7477 C 105.7178 -44.8644 104.1449 -45.7202 102.3034 -46.1895 C 108.2967 -48.4028 113.9075 -51.0614 119.0319 -54.1161 L 104.8986 -49.9732 Z" fill="rgba(247,247,247,1.00)" stroke-width="2.0000" stroke="rgba(0,0,0,1.00)"></path><path d="M 149.4534 -84.5613 L 154.1928 -88.3352 L 147.0031 -73.8495 C 144.5728 -77.4297 145.5375 -81.6472 149.4534 -84.5613 Z" fill="none" stroke-width="2.0000" stroke="rgba(0,0,0,1.00)"></path><path d="M 158.1389 -96.2858 L 154.1928 -88.3352" fill="none" stroke-width="2.0000" stroke="rgba(0,0,0,1.00)"></path><path d="M 162.4934 -98.3909 L 161.7785 -95.7706" fill="none" stroke-width="2.0000" stroke="rgba(0,0,0,1.00)"></path><path d="M 147.9185 -83.1963 C 141.0194 -76.7675 138.1178 -68.7533 139.8433 -60.8919 C 141.8968 -63.9137 145.2585 -66.4425 149.4807 -68.1416 L 147.0031 -73.8495" fill="none" stroke-width="2.0000" stroke="rgba(0,0,0,1.00)"></path><path d="M 186.7305 -159.4063 L 185.8409 -157.4292 C 184.9359 -155.9387 185.2766 -154.0082 186.6372 -152.9176 C 187.4293 -151.1711 189.0647 -149.9553 190.9654 -149.7000 C 192.8661 -149.4447 194.7643 -150.1858 195.9892 -151.6614 C 199.2456 -153.9764 202.1001 -156.8099 204.4391 -160.0491 C 210.8230 -169.2965 218.8545 -177.2898 228.1322 -183.6294 C 232.2028 -185.1123 234.5407 -189.3857 233.5941 -193.6133 C 233.4046 -190.0172 230.5415 -187.1385 226.9465 -186.9294 C 217.9310 -186.1909 209.3015 -182.9470 202.0320 -177.5638 C 199.7155 -176.0966 197.8585 -174.0074 196.6732 -171.5348 C 195.0610 -168.9105 192.9416 -166.6342 190.4389 -164.8389 C 188.7473 -163.3850 187.4683 -161.5113 186.7305 -159.4063 Z" fill="rgba(247,247,247,1.00)" stroke-width="2.0000" stroke="rgba(0,0,0,1.00)"></path><path d="M 79.5891 9.0873 L 80.4788 7.1102 C 81.3838 5.6197 81.0430 3.6892 79.6824 2.5987 C 78.8903 0.8521 77.2549 -0.3637 75.3542 -0.6190 C 73.4536 -0.8743 71.5553 -0.1332 70.3304 1.3424 C 67.0741 3.6575 64.2195 6.4910 61.8805 9.7301 C 55.4967 18.9775 47.4652 26.9708 38.1874 33.3104 C 34.1168 34.7933 31.7789 39.0667 32.7255 43.2943 C 32.9151 39.6982 35.7781 36.8195 39.3732 36.6104 C 48.3886 35.8719 57.0182 32.6280 64.2876 27.2448 C 66.6041 25.7777 68.4611 23.6884 69.6464 21.2158 C 71.2586 18.5915 73.3780 16.3152 75.8807 14.5199 C 77.5723 13.0660 78.8513 11.1923 79.5891 9.0873 Z" fill="rgba(247,247,247,1.00)" stroke-width="2.0000" stroke="rgba(0,0,0,1.00)"></path><path d="M 109.0607 -69.9594 C 108.5676 -68.5136 107.8494 -67.1546 106.9325 -65.9327 C 104.7878 -63.2389 103.7698 -59.8191 104.0921 -56.3909 C 102.3712 -51.7370 98.7826 -48.0149 94.1947 -46.1251 C 91.7008 -44.6713 90.2335 -41.9412 90.3972 -39.0591 L 85.2738 -51.3617 C 82.4684 -59.2812 85.6040 -68.0825 92.7847 -72.4444 C 94.2818 -73.8607 96.3050 -74.5827 98.3605 -74.4342 C 100.4160 -74.2858 102.3144 -73.2805 103.5924 -71.6637 C 104.1571 -71.4085 104.8122 -71.4541 105.3360 -71.7850 C 105.8599 -72.1159 106.1825 -72.6879 106.1946 -73.3075 C 105.9865 -74.3102 106.6307 -75.2917 107.6334 -75.4998 C 108.6361 -75.7079 109.6177 -75.0637 109.8257 -74.0610 C 109.7869 -73.0939 109.6513 -72.1332 109.4212 -71.1931 C 115.2480 -67.3974 120.2904 -62.5164 124.2735 -56.8161 L 121.9489 -58.0493 C 118.4571 -62.8098 114.0814 -66.8535 109.0607 -69.9594 Z" fill="rgba(247,247,247,1.00)" stroke-width="2.0000" stroke="rgba(0,0,0,1.00)"></path><path d="M -2.3888 -84.7778 C -0.2990 -88.3461 3.9653 -90.0156 7.9223 -88.8146 C 17.1549 -87.7674 26.5036 -88.9861 35.1591 -92.3652 C 41.6627 -95.4473 48.5747 -97.5807 55.6841 -98.7002 C 69.1616 -101.6484 78.4266 -114.0498 77.4321 -127.8101 C 77.2123 -130.3138 75.9361 -132.6053 73.9232 -134.1105 C 71.9103 -135.6156 69.3515 -136.1918 66.8877 -135.6946 C 62.9262 -134.6466 60.2802 -130.9165 60.6003 -126.8312 C 60.6433 -126.4013 60.4382 -125.9842 60.0714 -125.7559 C 59.7046 -125.5275 59.2399 -125.5275 58.8730 -125.7559 C 58.5062 -125.9842 58.3011 -126.4013 58.3442 -126.8312 C 58.7693 -129.9936 58.8991 -133.1886 58.7318 -136.3750 C 58.7134 -138.9380 57.3249 -141.2951 55.0922 -142.5536 C 52.8595 -143.8121 50.1240 -143.7795 47.9219 -142.4681 C 42.8467 -139.4600 38.3134 -135.6201 34.5115 -131.1089 C 25.7032 -123.6478 16.6168 -116.5216 7.2715 -109.7452 C -0.6461 -104.0990 -4.4442 -94.2827 -2.3888 -84.7778 Z" fill="rgba(247,247,247,1.00)" stroke-width="2.0000" stroke="rgba(0,0,0,1.00)"></path><path d="M 160.1655 -59.5162 C 157.4551 -58.8836 154.9040 -57.9730 152.6014 -56.8161" fill="none" stroke-width="2.0000" stroke="rgba(0,0,0,1.00)"></path><path d="M 88.4048 62.4838 C 92.8355 60.9861 96.1356 57.2454 97.0693 52.6625 C 98.0029 48.0796 96.4291 43.3460 92.9374 40.2344 L 91.0207 37.3061 C 86.8572 35.6693 82.1302 36.4642 78.7311 39.3729 C 75.3320 42.2815 73.8159 46.8288 74.7895 51.1953 C 77.4867 57.8389 78.6926 64.9936 78.3222 72.1543 C 80.8434 68.1562 84.3050 64.8361 88.4048 62.4838 Z" fill="rgba(247,247,247,1.00)" stroke-width="2.0000" stroke="rgba(0,0,0,1.00)"></path><path d="M 146.3191 5.8323 C 139.9449 13.7877 138.5366 24.6327 142.6675 33.9523 L 144.3979 36.0990 C 146.6681 39.1689 149.2370 42.0063 152.0671 44.5693 C 153.1410 46.2184 154.7134 47.4813 156.5552 48.1743 C 159.8259 49.1885 162.9474 50.6325 165.8380 52.4684 C 173.5940 56.2582 180.9034 60.9005 187.6309 66.3095 C 185.6826 64.1560 184.8342 61.2255 185.3307 58.3642 C 185.8271 55.5030 187.6131 53.0295 190.1728 51.6582 C 201.8093 44.3969 207.5239 30.5270 204.3798 17.1760 C 201.0403 3.2636 188.4832 -6.4605 174.1779 -6.2122 C 171.3429 -6.2921 168.6464 -4.9875 166.9497 -2.7150 C 165.2529 -0.4425 164.7681 2.5135 165.6502 5.2089 C 166.0369 5.9154 165.9222 6.7907 165.3667 7.3738 C 164.8112 7.9568 163.9424 8.1136 163.2181 7.7615 C 162.4939 7.4094 162.0805 6.6293 162.1959 5.8323 C 160.2983 3.3703 157.3659 1.9281 154.2575 1.9281 C 151.1491 1.9281 148.2167 3.3703 146.3191 5.8323 Z" fill="rgba(247,247,247,1.00)" stroke-width="2.0000" stroke="rgba(0,0,0,1.00)"></path><path d="M 130.0824 -70.7199 L 138.3484 -59.7588" fill="none" stroke-width="2.0000" stroke="rgba(0,0,0,1.00)"></path><path d="M 79.6824 2.5987 C 66.6581 14.1255 53.0064 24.9232 38.7897 34.9425 C 35.7270 35.8787 33.3589 38.3207 32.5172 41.4106" fill="none" stroke-width="2.0000" stroke="rgba(0,0,0,1.00)"></path><path d="M 186.6372 -152.9176 C 199.6615 -164.4445 213.3133 -175.2422 227.5300 -185.2614 C 230.5926 -186.1977 232.9607 -188.6397 233.8024 -191.7296" fill="none" stroke-width="2.0000" stroke="rgba(0,0,0,1.00)"></path><path d="M 119.5100 18.2842 C 121.9326 22.2064 122.7696 26.9043 121.8506 31.4219 C 122.5735 28.0834 125.3386 25.5738 128.7313 25.1770 C 132.5607 25.5328 136.1349 23.2174 137.3755 19.5771 C 140.1266 10.0896 135.1982 0.0682 126.0043 -3.5450 C 125.4576 -5.2963 123.9683 -6.5883 122.1573 -6.8825 C 120.3464 -7.1766 118.5247 -6.4224 117.4518 -4.9342 C 114.0570 2.6372 114.8362 11.4281 119.5100 18.2842 Z" fill="rgba(247,247,247,1.00)" stroke-width="2.0000" stroke="rgba(0,0,0,1.00)"></path><path d="M 103.5924 -71.6637 C 93.5632 -64.0258 88.5031 -51.5225 90.3972 -39.0591" fill="none" stroke-width="2.0000" stroke="rgba(0,0,0,1.00)"></path><path d="M 237.1346 26.6235 C 241.7436 26.7228 246.1416 28.5746 249.4334 31.8020 C 247.0245 29.3802 246.4216 25.6950 247.9331 22.6318 C 250.3138 19.6114 250.3138 15.3527 247.9331 12.3323 C 241.4662 4.8650 230.3758 3.5527 222.3447 9.3045 C 220.5776 8.8113 218.6834 9.3587 217.4520 10.7187 C 216.2205 12.0786 215.8631 14.0176 216.5288 15.7273 C 221.0376 22.6930 228.8393 26.8185 237.1346 26.6235 Z" fill="rgba(247,247,247,1.00)" stroke-width="2.0000" stroke="rgba(0,0,0,1.00)"></path><path d="M 124.7616 -65.6780 C 127.3288 -62.9321 129.2889 -59.9465 130.5798 -56.8161" fill="none" stroke-width="2.0000" stroke="rgba(0,0,0,1.00)"></path><path d="M 61.4109 -95.6444 C 66.3141 -99.5480 73.3261 -99.3137 77.9577 -95.0915 C 79.2053 -93.4128 78.9216 -91.0514 77.3119 -89.7160 C 78.0938 -89.2538 78.6124 -88.4504 78.7118 -87.5476 C 78.8111 -86.6447 78.4796 -85.7478 77.8169 -85.1266 C 75.6178 -82.3469 72.2542 -80.7440 68.7101 -80.7867 C 65.1659 -80.8295 61.8420 -82.5131 59.7105 -85.3450 C 57.8911 -87.7343 55.1995 -89.3059 52.2245 -89.7160 C 55.7100 -90.9427 58.8572 -92.9738 61.4109 -95.6444 Z" fill="rgba(247,247,247,1.00)" stroke-width="2.0000" stroke="rgba(0,0,0,1.00)"></path><path d="M 59.4722 -125.5846 C 50.9951 -117.6151 40.6078 -111.9638 29.3118 -109.1755 C 15.9906 -105.4422 4.6306 -96.6992 -2.3888 -84.7778" fill="none" stroke-width="2.0000" stroke="rgba(0,0,0,1.00)"></path><path d="M 126.4524 -97.4263 L 127.7759 -80.0571" fill="none" stroke-width="2.0000" stroke="rgba(0,0,0,1.00)"></path><path d="M 92.9374 40.2344 C 86.4188 50.0403 81.4865 60.8125 78.3222 72.1543" fill="none" stroke-width="2.0000" stroke="rgba(0,0,0,1.00)"></path><path d="M 164.3557 7.9183 C 170.4726 19.1098 174.9451 31.1244 177.6352 43.5915 C 178.1943 52.1034 181.7331 60.1466 187.6309 66.3095" fill="none" stroke-width="2.0000" stroke="rgba(0,0,0,1.00)"></path><path d="M 148.1215 -88.3607 L 145.5333 -86.5743" fill="none" stroke-width="2.0000" stroke="rgba(0,0,0,1.00)"></path><path d="M 202.9852 -116.3832 C 198.4787 -115.5896 193.8682 -115.5896 189.3617 -116.3832 C 189.0077 -116.5602 188.7841 -116.9220 188.7841 -117.3178 C 188.7841 -117.7136 189.0077 -118.0754 189.3617 -118.2524 C 192.0784 -120.1014 195.1507 -121.3638 198.3825 -121.9590 C 195.9672 -122.5688 194.0439 -124.3926 193.3068 -126.7722 C 192.5697 -129.1517 193.1253 -131.7434 194.7730 -133.6117 C 205.6543 -143.9581 221.7563 -146.5972 235.3712 -140.2657 C 246.6318 -135.3872 257.6802 -130.0330 268.4866 -124.2174 C 272.0237 -122.3014 274.6404 -119.0420 275.7465 -115.1744 C 272.4069 -119.8808 266.4707 -121.9818 260.9141 -120.4241 C 251.3178 -118.0772 241.3768 -117.4807 231.5687 -118.6634 C 222.6279 -119.1176 213.6663 -118.3936 204.9144 -116.5101 L 202.9852 -116.3832 Z" fill="rgba(247,247,247,1.00)" stroke-width="2.0000" stroke="rgba(0,0,0,1.00)"></path><path d="M 222.6136 9.3881 C 232.7675 15.2735 241.8386 22.8544 249.4334 31.8020" fill="none" stroke-width="2.0000" stroke="rgba(0,0,0,1.00)"></path><path d="M 126.0804 -3.2739 C 126.6615 8.4480 125.2309 20.1829 121.8506 31.4219" fill="none" stroke-width="2.0000" stroke="rgba(0,0,0,1.00)"></path><path d="M 52.2245 -89.7160 C 60.3799 -92.3478 69.1565 -92.3478 77.3119 -89.7160" fill="none" stroke-width="2.0000" stroke="rgba(0,0,0,1.00)"></path><path d="M 124.3352 -96.2496 C 118.4601 -88.0548 107.2158 -85.8595 98.6897 -91.2427 C 89.0420 -96.8434 82.0465 -106.0828 79.2727 -116.8880 C 74.7044 -139.8901 83.7192 -163.4755 102.4651 -177.5665 C 104.7922 -178.5677 106.5942 -180.4968 107.4348 -182.8865 C 108.2754 -185.2763 108.0778 -187.9088 106.8899 -190.1463 C 113.0091 -183.9716 121.2940 -180.4249 129.9856 -180.2593 C 153.9480 -172.6591 169.2305 -149.2202 166.5188 -124.2281 C 164.9224 -115.5336 158.1527 -108.7106 149.4710 -107.0462 C 140.7889 -105.3819 131.9755 -109.2176 127.2766 -116.7056 C 126.5958 -117.1673 125.7351 -117.2754 124.9612 -116.9964 C 124.1875 -116.7174 123.5940 -116.0850 123.3645 -115.2952 C 126.6485 -109.4477 127.0076 -102.4006 124.3352 -96.2496 Z M 110.3860 -149.0887 C 110.3735 -148.1169 109.9223 -147.2028 109.1585 -146.6019 C 108.3946 -146.0009 107.4000 -145.7775 106.4524 -145.9940 C 98.4295 -147.2948 92.1244 -153.5579 90.7698 -161.5718 C 90.4551 -162.4429 90.5756 -163.4118 91.0940 -164.1793 C 91.6124 -164.9466 92.4664 -165.4201 93.3919 -165.4532 C 101.4230 -163.1596 107.7910 -157.0276 110.3860 -149.0887 Z M 129.0745 -138.1502 C 135.7998 -140.2951 140.6354 -146.1939 141.4192 -153.2093 C 135.0868 -150.5136 130.4755 -144.8884 129.0745 -138.1502 Z M 109.5110 -126.7425 C 109.5111 -126.1642 109.0424 -125.6953 108.4641 -125.6951 C 99.0367 -126.3905 89.9678 -129.5990 82.2005 -134.9869 C 81.1725 -135.6913 80.6307 -136.9162 80.8011 -138.1507 C 80.9712 -139.3850 81.8241 -140.4173 83.0042 -140.8172 C 90.5628 -134.8603 99.2110 -130.4352 108.4641 -127.7899 C 109.0424 -127.7897 109.5111 -127.3208 109.5110 -126.7425 Z" fill="rgba(247,247,247,1.00)" stroke-width="2.0000" stroke="rgba(0,0,0,1.00)"></path><path d="M 198.3825 -121.9590 C 210.2136 -122.3500 221.9199 -124.5059 233.1141 -128.3554 C 241.1461 -130.9719 249.9309 -129.8121 257.0086 -125.2006 C 258.7360 -124.1030 260.6874 -123.4062 262.7195 -123.1616 C 268.2645 -123.3294 273.3810 -120.1923 275.7465 -115.1744" fill="none" stroke-width="2.0000" stroke="rgba(0,0,0,1.00)"></path><path d="M 178.9073 -83.0044 C 174.0041 -86.9079 166.9921 -86.6737 162.3604 -82.4515 C 161.1129 -80.7728 161.3966 -78.4114 163.0063 -77.0760 C 162.2244 -76.6138 161.7058 -75.8104 161.6064 -74.9075 C 161.5071 -74.0047 161.8386 -73.1077 162.5013 -72.4865 C 164.7004 -69.7069 168.0640 -68.1040 171.6081 -68.1467 C 175.1522 -68.1895 178.4762 -69.8731 180.6076 -72.7050 C 182.4271 -75.0943 185.1187 -76.6659 188.0937 -77.0760 C 184.6082 -78.3027 181.4610 -80.3337 178.9073 -83.0044 Z" fill="rgba(247,247,247,1.00)" stroke-width="2.0000" stroke="rgba(0,0,0,1.00)"></path><path d="M 124.9614 -116.9965 C 123.2804 -142.2519 117.1631 -167.0136 106.8900 -190.1463" fill="none" stroke-width="2.0000" stroke="rgba(0,0,0,1.00)"></path><path d="M 129.7439 -29.0710 L 125.0046 -25.2970 L 132.1943 -39.7827 C 134.6246 -36.2026 133.6599 -31.9851 129.7439 -29.0710 Z" fill="none" stroke-width="2.0000" stroke="rgba(0,0,0,1.00)"></path><path d="M 121.0584 -17.3465 L 125.0046 -25.2970" fill="none" stroke-width="2.0000" stroke="rgba(0,0,0,1.00)"></path><path d="M 116.7040 -15.2414 L 117.4189 -17.8617" fill="none" stroke-width="2.0000" stroke="rgba(0,0,0,1.00)"></path><path d="M 131.2789 -30.4359 C 138.1780 -36.8647 141.0796 -44.8789 139.3541 -52.7403 L 144.4396 -56.8161 L 150.6576 -62.9067" fill="none" stroke-width="2.0000" stroke="rgba(0,0,0,1.00)"></path><path d="M 188.0937 -77.0760 C 179.9383 -79.7078 171.1617 -79.7078 163.0063 -77.0760" fill="none" stroke-width="2.0000" stroke="rgba(0,0,0,1.00)"></path><path d="M 142.4110 -41.2747 C 142.8881 -45.2115 141.8340 -49.1652 139.3541 -52.7403 C 137.3005 -49.7186 133.9388 -47.1898 129.7167 -45.4906 L 132.1943 -39.7827" fill="none" stroke-width="2.0000" stroke="rgba(0,0,0,1.00)"></path><path d="M 258.1265 10.2947 C 255.4881 5.7493 255.4881 0.1385 258.1265 -4.4070 C 262.3378 -12.6908 259.9291 -22.8058 252.4361 -28.3025 C 251.5508 -29.0990 250.2071 -29.0990 249.3218 -28.3025 C 246.7482 -28.1953 244.2388 -29.1233 242.3541 -30.8791 C 240.4695 -32.6349 239.3665 -35.0723 239.2916 -37.6470 C 238.2838 -41.0908 235.8631 -43.9458 232.6304 -45.5032 C 229.3979 -47.0605 225.6566 -47.1742 222.3355 -45.8159 C 217.7764 -43.3742 212.5185 -42.5676 207.4371 -43.5303 C 203.6648 -43.3829 200.1711 -41.5048 197.9673 -38.4397 C 195.7634 -35.3746 195.0954 -31.4647 196.1568 -27.8418 C 195.8785 -26.9141 195.1703 -26.1774 194.2544 -25.8625 C 193.3387 -25.5478 192.3274 -25.6935 191.5376 -26.2539 C 184.9306 -32.1568 175.8968 -34.5397 167.2378 -32.6638 C 165.4822 -32.2720 164.1031 -30.9142 163.6841 -29.1648 C 163.2651 -27.4153 163.8794 -25.5800 165.2671 -24.4353 C 171.5083 -17.3714 179.1568 -11.6898 187.7222 -7.7549 L 189.7808 -6.7129 C 207.4603 0.2358 226.2098 4.0695 245.1978 4.6184 C 250.1592 4.3776 254.9460 6.4792 258.1265 10.2947 Z M 202.3443 -21.5727 C 201.2949 -21.9774 200.1072 -21.7585 199.2710 -21.0063 C 197.4035 -18.9619 196.5673 -16.1790 196.9986 -13.4438 C 197.0335 -12.6500 197.5465 -11.9568 198.2955 -11.6914 C 199.0446 -11.4261 199.8798 -11.6418 200.4068 -12.2368 C 202.5339 -13.9299 203.9111 -16.3906 204.2418 -19.0891 C 204.1272 -20.2081 203.3938 -21.1680 202.3443 -21.5727 Z" fill="rgba(247,247,247,1.00)" stroke-width="2.0000" stroke="rgba(0,0,0,1.00)"></path><path d="M 116.6575 -49.9861 C 122.4847 -48.2366 125.9383 -42.2484 124.5345 -36.3284 C 123.2260 -29.7257 119.3216 -23.9247 113.6972 -20.2268 C 101.4625 -13.1175 86.2365 -13.6468 74.5250 -21.5885 C 73.4981 -22.7208 72.0444 -23.3718 70.5159 -23.3839 C 68.9874 -23.3959 67.5235 -22.7679 66.4789 -21.6520 C 68.8056 -26.3531 69.2084 -31.7759 67.6019 -36.7692 C 67.2501 -51.9335 77.6372 -65.2436 92.4325 -68.5872 C 97.7074 -69.3777 102.9267 -66.8491 105.5758 -62.2196 C 108.2249 -57.5899 107.7605 -51.8088 104.4063 -47.6614 C 104.2760 -47.1824 104.3828 -46.6700 104.6935 -46.2829 C 105.0042 -45.8959 105.4812 -45.6809 105.9769 -45.7045 C 108.6718 -48.7233 112.6237 -50.3075 116.6575 -49.9861 Z M 89.2289 -31.6830 C 89.7860 -31.8660 90.3960 -31.7874 90.8885 -31.4691 C 91.3811 -31.1507 91.7033 -30.6267 91.7651 -30.0435 C 92.5928 -25.2098 90.2521 -20.3852 85.9431 -18.0436 C 85.5076 -17.6935 84.9309 -17.5726 84.3915 -17.7184 C 83.8520 -17.8641 83.4147 -18.2588 83.2146 -18.7806 C 82.9519 -23.8134 85.2056 -28.6481 89.2289 -31.6830 Z M 91.8146 -44.4905 C 89.2741 -47.9093 84.9609 -49.5148 80.8034 -48.5892 C 83.5813 -45.5025 87.6945 -43.9714 91.8146 -44.4905 Z M 102.1546 -35.5570 C 102.4846 -35.6703 102.8440 -35.4946 102.9573 -35.1645 C 104.4054 -29.6476 104.3491 -23.8434 102.7940 -18.3556 C 102.5931 -17.6310 102.0001 -17.0821 101.2621 -16.9377 C 100.5243 -16.7932 99.7682 -17.0780 99.3090 -17.6733 C 101.2296 -23.1533 102.0628 -28.9555 101.7617 -34.7545 C 101.6486 -35.0846 101.8245 -35.4439 102.1546 -35.5570 Z" fill="rgba(247,247,247,1.00)" stroke-width="2.0000" stroke="rgba(0,0,0,1.00)"></path><path d="M 128.5398 -50.7256 L 134.4666 -56.8161 L 139.8433 -60.8919 C 137.3633 -64.4671 136.3092 -68.4207 136.7863 -72.3576" fill="none" stroke-width="2.0000" stroke="rgba(0,0,0,1.00)"></path><path d="M 119.0319 -54.1161 C 121.7423 -54.7487 124.2933 -55.6593 126.5959 -56.8161" fill="none" stroke-width="2.0000" stroke="rgba(0,0,0,1.00)"></path><path d="M 149.1150 -42.9124 L 140.8489 -53.8735" fill="none" stroke-width="2.0000" stroke="rgba(0,0,0,1.00)"></path><path d="M 104.6934 -46.2830 C 90.6075 -40.3807 77.6717 -32.0430 66.4789 -21.6520" fill="none" stroke-width="2.0000" stroke="rgba(0,0,0,1.00)"></path><path d="M 195.1567 -26.3591 C 206.3532 -22.4484 217.0136 -17.1455 226.8871 -10.5752 L 256.5813 6.4803" fill="none" stroke-width="2.0000" stroke="rgba(0,0,0,1.00)"></path><path d="M 154.4357 -47.9542 C 151.8686 -50.7002 149.9085 -53.6858 148.6176 -56.8161" fill="none" stroke-width="2.0000" stroke="rgba(0,0,0,1.00)"></path><path d="M 152.7450 -16.2060 L 151.4215 -33.5752" fill="none" stroke-width="2.0000" stroke="rgba(0,0,0,1.00)"></path><path d="M 131.0759 -25.2716 L 133.6640 -27.0580" fill="none" stroke-width="2.0000" stroke="rgba(0,0,0,1.00)"></path><path d="M 175.5711 -79.3890 C 176.0642 -77.9431 176.7824 -76.5841 177.6993 -75.3622 C 179.8440 -72.6684 180.8620 -69.2486 180.5397 -65.8204 C 182.2606 -61.1666 185.8492 -57.4444 190.4371 -55.5547 C 192.9310 -54.1009 194.3983 -51.3707 194.2346 -48.4886 L 199.3580 -60.7913 C 202.1634 -68.7108 199.0278 -77.5121 191.8471 -81.8740 C 190.3500 -83.2902 188.3268 -84.0123 186.2713 -83.8638 C 184.2158 -83.7153 182.3174 -82.7100 181.0394 -81.0933 C 180.4747 -80.8381 179.8196 -80.8837 179.2958 -81.2146 C 178.7719 -81.5455 178.4493 -82.1175 178.4372 -82.7370 C 178.6453 -83.7397 178.0011 -84.7213 176.9984 -84.9294 C 175.9957 -85.1374 175.0141 -84.4933 174.8061 -83.4905 C 174.8449 -82.5235 174.9805 -81.5628 175.2106 -80.6227 C 169.3838 -76.8270 164.3414 -71.9460 160.3583 -66.2457 L 162.6829 -67.4788 C 166.1747 -72.2394 170.5504 -76.2830 175.5711 -79.3890 Z" fill="rgba(247,247,247,1.00)" stroke-width="2.0000" stroke="rgba(0,0,0,1.00)"></path><path d="M 181.0394 -81.0933 C 191.0686 -73.4553 196.1287 -60.9520 194.2346 -48.4886" fill="none" stroke-width="2.0000" stroke="rgba(0,0,0,1.00)"></path></svg>