<svg preserveAspectRatio="xMidYMid meet" viewBox="-710.0000 -329.7346 1440.0000 836.8147" height="100%" width="100%" xmlns="http://www.w3.org/2000/svg"><defs><pattern patternUnits="userSpaceOnUse" height="1000" width="1000" viewBox="0,0,10,10" id="placeholder"><polygon points="0,0 0,5 5,5 5,0" fill="grey"></polygon><polygon points="5,5 5,10 10,10 10,5" fill="grey"></polygon></pattern></defs><path d="M 610.0000 240.0000 Q 610.0000 -10.0000 610.0000 -260.0000 Q 10.0000 -260.0000 -590.0000 -260.0000 Q -590.0000 -10.0000 -590.0000 240.0000 Q -579.0000 240.0000 -568.0000 240.0000 Q -541.6858 240.0000 -515.3715 240.0000 Q 10.0000 240.0000 535.3715 240.0000 Q 561.6858 240.0000 588.0000 240.0000 Q 599.0000 240.0000 610.0000 240.0000 Z" fill="rgba(247,247,247,1.00)" stroke-width="10.0000" stroke="rgba(0,0,0,1.00)"></path><path d="M -19.6410 420.4312 Q -290.7423 321.7583 -561.8436 223.0855" fill="none" stroke-width="2.4000" stroke="rgba(188,188,188,1.00)"></path><path d="M -25.7974 437.3456 L -19.6410 420.4312" fill="none" stroke-width="2.4000" stroke="rgba(188,188,188,1.00)"></path><path d="M -568.0000 240.0000 L -25.7974 437.3456" fill="none" stroke-width="2.4000" stroke="rgba(188,188,188,1.00)"></path><path d="M 0.0000 -240.0000 L 0.0000 240.0000" fill="none" stroke-width="2.4000" stroke="rgba(188,188,188,1.00)"></path><path d="M 590.0000 240.0000 Q 590.0000 -0.0000 590.0000 -240.0000 Q 10.0000 -240.0000 -570.0000 -240.0000 Q -570.0000 -0.0000 -570.0000 240.0000" fill="none" stroke-width="2.4000" stroke="rgba(188,188,188,1.00)"></path><path d="M -19.6410 420.4312 Q 9.2807 332.5335 10.0000 240.0000" fill="none" stroke-width="2.4000" stroke="rgba(188,188,188,1.00)"></path><path d="M 20.0000 -240.0000 L 20.0000 240.0000" fill="none" stroke-width="2.4000" stroke="rgba(188,188,188,1.00)"></path><path d="M 588.0000 240.0000 L 581.8436 223.0855" fill="none" stroke-width="2.4000" stroke="rgba(188,188,188,1.00)"></path><path d="M 39.6410 420.4312 L 45.7974 437.3456" fill="none" stroke-width="2.4000" stroke="rgba(188,188,188,1.00)"></path><path d="M -568.0000 240.0000 L -561.8436 223.0855" fill="none" stroke-width="2.4000" stroke="rgba(188,188,188,1.00)"></path><path d="M 39.6410 420.4312 Q 10.7193 332.5335 10.0000 240.0000" fill="none" stroke-width="2.4000" stroke="rgba(188,188,188,1.00)"></path><path d="M 45.7974 437.3456 L 588.0000 240.0000" fill="none" stroke-width="2.4000" stroke="rgba(188,188,188,1.00)"></path><path d="M 581.8436 223.0855 Q 310.7423 321.7583 39.6410 420.4312" fill="none" stroke-width="2.4000" stroke="rgba(188,188,188,1.00)"></path></svg>