<svg xmlns="http://www.w3.org/2000/svg" preserveAspectRatio="xMidYMid meet" viewBox="-535.5 -40.2 1071 80.4" height="100%" width="100%"><defs><pattern patternUnits="userSpaceOnUse" height="1000" width="1000" viewBox="0,0,10,10" id="placeholder"><polygon points="0,0 0,5 5,5 5,0" fill="grey"/><polygon points="5,5 5,10 10,10 10,5" fill="grey"/></pattern></defs><path d="M 533.4000 -38.1002 Q 0.0000 -38.1002 -533.4000 -38.1002 Q -533.4000 -0.0002 -533.4000 38.0998 Q -0.0000 38.0998 533.4000 38.0998 Q 533.4000 -0.0002 533.4000 -38.1002 Z" fill="none" stroke-width="2.1336" stroke="rgba(0,0,0,1.00)"/><path d="M -494.6159 28.0876 Q -466.6861 28.0876 -438.7563 28.0876 Q -438.7563 0.0138 -438.7563 -28.0600 Q -466.6861 -28.0600 -494.6159 -28.0600 Q -494.6159 0.0138 -494.6159 28.0876" fill="none" stroke-width="2.1336" stroke="rgba(0,0,0,1.00)"/><path d="M -486.6359 -28.0600 L -486.5587 -38.1002" fill="none" stroke-width="2.1336" stroke="rgba(0,0,0,1.00)"/><path d="M -502.5958 38.1002 L -502.6049 28.1349" fill="none" stroke-width="2.1336" stroke="rgba(0,0,0,1.00)"/><path d="M -502.6049 28.1349 L -494.6159 28.0876" fill="none" stroke-width="2.1336" stroke="rgba(0,0,0,1.00)"/><path d="M 494.6159 28.0876 Q 466.6861 28.0876 438.7563 28.0876 Q 438.7563 0.0138 438.7563 -28.0600 Q 466.6861 -28.0600 494.6159 -28.0600 Q 494.6159 0.0138 494.6159 28.0876" fill="none" stroke-width="2.1336" stroke="rgba(0,0,0,1.00)"/><path d="M 486.6359 -28.0600 L 486.5587 -38.1002" fill="none" stroke-width="2.1336" stroke="rgba(0,0,0,1.00)"/><path d="M 438.7563 -28.0600 L -438.7563 -28.0600" fill="none" stroke-width="2.1336" stroke="rgba(0,0,0,1.00)"/><path d="M 502.5958 38.1002 L 502.6049 28.1349" fill="none" stroke-width="2.1336" stroke="rgba(0,0,0,1.00)"/><path d="M -438.7563 0.0138 L 438.7563 0.0138" fill="none" stroke-width="2.1336" stroke="rgba(0,0,0,1.00)"/><path d="M 438.7563 28.0876 L -438.7563 28.0876" fill="none" stroke-width="2.1336" stroke="rgba(0,0,0,1.00)"/><path d="M 502.6049 28.1349 L 494.6159 28.0876" fill="none" stroke-width="2.1336" stroke="rgba(0,0,0,1.00)"/></svg>
