<svg xmlns="http://www.w3.org/2000/svg" preserveAspectRatio="xMidYMid meet" viewBox="-535.5 -40.2 1071 80.4" height="100%" width="100%"><defs><pattern patternUnits="userSpaceOnUse" height="1000" width="1000" viewBox="0,0,10,10" id="placeholder"><polygon points="0,0 0,5 5,5 5,0" fill="grey"/><polygon points="5,5 5,10 10,10 10,5" fill="grey"/></pattern></defs><path d="M 533.4000 38.0995 Q 533.4000 -0.0002 533.3999 -38.1000 Q -0.0000 -38.0998 -533.4000 -38.0995 Q -533.4000 0.0002 -533.3999 38.1000 Q 0.0000 38.0998 533.4000 38.0995 Z" fill="none" stroke-width="2.1336" stroke="rgba(0,0,0,1.00)"/><path d="M -483.6578 0.0003 Q -234.3480 0.0002 14.9619 0.0001 Q 14.9619 -8.9517 14.9618 -17.9035 Q -234.3480 -17.9034 -483.6578 -17.9033 Q -483.6578 -8.9515 -483.6578 0.0003" fill="none" stroke-width="2.1336" stroke="rgba(0,0,0,1.00)"/><path d="M -461.8136 0.0003 Q -461.8135 15.5979 -461.8135 31.1954" fill="none" stroke-width="2.1336" stroke="rgba(0,0,0,1.00)"/><path d="M -483.6578 31.1954 Q -483.6578 34.6477 -483.6578 38.1000" fill="none" stroke-width="2.1336" stroke="rgba(0,0,0,1.00)"/><path d="M 483.6578 31.1950 Q 0.0000 31.1952 -483.6578 31.1954" fill="none" stroke-width="2.1336" stroke="rgba(0,0,0,1.00)"/><path d="M 483.6578 -31.1953 Q -0.0000 -31.1950 -483.6578 -31.1948" fill="none" stroke-width="2.1336" stroke="rgba(0,0,0,1.00)"/><path d="M -483.6578 -31.1948 Q -483.6578 -34.6471 -483.6578 -38.0994" fill="none" stroke-width="2.1336" stroke="rgba(0,0,0,1.00)"/><path d="M -461.8136 -31.1948 Q -461.8136 -24.5491 -461.8136 -17.9033" fill="none" stroke-width="2.1336" stroke="rgba(0,0,0,1.00)"/><path d="M 483.6579 0.0003 Q 234.3480 0.0004 -14.9618 0.0005 Q -14.9618 8.9523 -14.9618 17.9041 Q 234.3480 17.9040 483.6579 17.9039 Q 483.6579 8.9521 483.6579 0.0003" fill="none" stroke-width="2.1336" stroke="rgba(0,0,0,1.00)"/><path d="M 461.8136 0.0003 Q 461.8136 -15.5972 461.8136 -31.1948" fill="none" stroke-width="2.1336" stroke="rgba(0,0,0,1.00)"/><path d="M 483.6579 -31.1948 Q 483.6579 -34.6471 483.6579 -38.0994" fill="none" stroke-width="2.1336" stroke="rgba(0,0,0,1.00)"/><path d="M 483.6579 31.1954 Q 483.6579 34.6477 483.6579 38.1000" fill="none" stroke-width="2.1336" stroke="rgba(0,0,0,1.00)"/><path d="M 461.8136 31.1954 Q 461.8136 24.5497 461.8136 17.9039" fill="none" stroke-width="2.1336" stroke="rgba(0,0,0,1.00)"/></svg>
