<svg preserveAspectRatio="xMidYMid meet" viewBox="-364.0337 -397.2526 721.3676 776.0364" height="100%" width="100%" xmlns="http://www.w3.org/2000/svg"><defs><pattern patternUnits="userSpaceOnUse" height="1000" width="1000" viewBox="0,0,10,10" id="placeholder"><polygon points="0,0 0,5 5,5 5,0" fill="grey"></polygon><polygon points="5,5 5,10 10,10 10,5" fill="grey"></polygon></pattern></defs><path d="M -246.4638 263.4104 Q -246.4638 288.7623 -246.4638 314.1142 Q -4.3160 314.1142 237.8319 314.1142 Q 237.8319 288.7623 237.8319 263.4104 Q 267.5259 263.4104 297.2199 263.4104 Q 297.2199 -34.5863 297.2199 -332.5828 Q -3.3499 -332.5828 -303.9197 -332.5828 Q -303.9197 -34.5863 -303.9197 263.4104 Q -275.1918 263.4104 -246.4638 263.4104" fill="rgba(247,247,247,1.00)" stroke-width="10.0000" stroke="rgba(0,0,0,1.00)"></path><path d="M 249.1848 -174.0820 C 249.1848 -238.3252 201.3456 -285.3544 135.9961 -285.3544 C 70.6466 -285.3544 22.8074 -238.3252 22.8074 -174.0820 C 22.8074 -109.8388 70.6466 -62.8096 135.9961 -62.8096 C 201.3456 -62.8096 249.1848 -109.8388 249.1848 -174.0820" fill="none" stroke-width="2.0000" stroke="rgba(0,0,0,1.00)"></path><path d="M -200.3355 289.5170 L 192.1878 289.5170 L 192.1878 263.4281 L -200.3355 263.4281 L -200.3355 289.5170 Z" fill="rgba(247,247,247,1.00)" stroke-width="10.0000" stroke="rgba(0,0,0,1.00)"></path><path d="M -246.4638 263.4104 Q -244.5422 263.4104 -242.6205 263.4104" fill="none" stroke-width="2.0000" stroke="rgba(0,0,0,1.00)"></path><path d="M 192.1862 263.4104 Q 213.3287 263.4104 234.4712 263.4104" fill="none" stroke-width="2.0000" stroke="rgba(0,0,0,1.00)"></path><path d="M -29.6407 104.2564 C -29.6407 40.0133 -77.4799 -7.0160 -142.8294 -7.0160 C -208.1790 -7.0160 -256.0181 40.0133 -256.0181 104.2564 C -256.0181 168.4996 -208.1790 215.5289 -142.8294 215.5289 C -77.4799 215.5289 -29.6407 168.4996 -29.6407 104.2564" fill="none" stroke-width="2.0000" stroke="rgba(0,0,0,1.00)"></path><path d="M -29.6407 -174.0820 C -29.6407 -238.3252 -77.4799 -285.3544 -142.8294 -285.3544 C -208.1790 -285.3544 -256.0181 -238.3252 -256.0181 -174.0820 C -256.0181 -109.8388 -208.1790 -62.8096 -142.8294 -62.8096 C -77.4799 -62.8096 -29.6407 -109.8388 -29.6407 -174.0820" fill="none" stroke-width="2.0000" stroke="rgba(0,0,0,1.00)"></path><path d="M 216.1109 104.7955 C 216.1109 59.3124 182.2416 26.0165 135.9753 26.0165 C 89.7089 26.0165 55.8396 59.3124 55.8396 104.7955 C 55.8396 150.2786 89.7089 183.5745 135.9753 183.5745 C 182.2416 183.5745 216.1109 150.2786 216.1109 104.7955" fill="none" stroke-width="2.0000" stroke="rgba(0,0,0,1.00)"></path><path d="M -242.6205 263.4104 Q -221.4780 263.4104 -200.3355 263.4104" fill="none" stroke-width="2.0000" stroke="rgba(0,0,0,1.00)"></path><path d="M 234.4712 263.4104 Q 236.1515 263.4104 237.8319 263.4104" fill="none" stroke-width="2.0000" stroke="rgba(0,0,0,1.00)"></path></svg>