<svg preserveAspectRatio="xMidYMid meet" viewBox="-889.9778 -515.2090 1802.4180 1077.1089" height="100%" width="100%" xmlns="http://www.w3.org/2000/svg"><defs><pattern patternUnits="userSpaceOnUse" height="1000" width="1000" viewBox="0,0,10,10" id="placeholder"><polygon points="0,0 0,5 5,5 5,0" fill="grey"></polygon><polygon points="5,5 5,10 10,10 10,5" fill="grey"></polygon></pattern></defs><path d="M -686.0585 472.1406 Q -686.0957 472.1408 -686.1328 472.1408 Q -709.6017 472.1408 -733.0711 472.1408 Q -739.7763 472.1408 -739.7763 462.0932 Q -739.7763 23.3455 -739.7763 -415.4024 Q -739.7763 -425.4499 -733.0711 -425.4499 Q -149.6987 -425.4499 755.5340 -425.4499 Q 762.2387 -425.4499 762.2387 -415.4024 Q 762.2387 23.3455 762.2387 462.0932 Q 762.2387 472.1408 755.5340 472.1408 Q 732.0647 472.1408 708.5953 472.1408 Q 708.5584 472.1408 708.5213 472.1406 Q 684.9977 472.1406 661.4736 472.1404 Q 661.3613 472.1408 661.2490 472.1408 Q 559.7542 472.1408 458.2599 472.1408 Q 383.5869 472.1408 282.0923 472.1408 Q 281.9798 472.1408 281.8674 472.1404 Q 241.4511 472.1404 201.0344 472.1404 Q 200.9218 472.1408 200.8096 472.1408 Q 99.3152 472.1408 24.6422 472.1408 Q -76.8525 472.1408 -178.3469 472.1408 Q -178.4592 472.1408 -178.5715 472.1404 Q -218.9885 472.1404 -259.4048 472.1404 Q -259.5171 472.1408 -259.6295 472.1408 Q -361.1242 472.1408 -435.7968 472.1408 Q -537.2915 472.1408 -638.7861 472.1408 Q -638.8988 472.1408 -639.0110 472.1404 Q -662.5346 472.1406 -686.0585 472.1406" fill="rgba(247,247,247,1.00)" stroke-width="10.0000" stroke="rgba(0,0,0,1.00)"></path><path d="M 362.5591 -83.9056 Q 479.2302 -83.9056 600.0006 -83.9056 Q 675.2098 -83.9056 675.2098 -160.5794 Q 675.2098 -241.4891 675.2098 -292.8028 Q 675.2098 -335.0211 634.5802 -335.0211 Q 479.2302 -335.0211 362.5591 -335.0211 Q 207.2095 -335.0211 51.8599 -335.0211 Q 11.2296 -335.0211 11.2296 -292.8028 Q 11.2296 -241.4891 11.2296 -160.5794 Q 11.2296 -83.9056 86.4390 -83.9056 Q 207.2095 -83.9056 362.5591 -83.9056" fill="none" stroke-width="3.0040" stroke="rgba(0,0,0,1.00)"></path><path d="M 11.2296 386.5873 Q 11.2296 398.9147 11.2296 411.2423 Q 11.2296 472.1408 69.8371 472.1408 Q 216.1979 472.1408 362.5591 472.1408 Q 470.2418 472.1408 616.6025 472.1408 Q 675.2098 472.1408 675.2098 411.2423" fill="none" stroke-width="3.0040" stroke="rgba(0,0,0,1.00)"></path><path d="M -301.4204 -83.9056 Q -184.7492 -83.9056 -63.9793 -83.9056 Q 11.2296 -83.9056 11.2296 -160.5794 Q 11.2296 -241.4891 11.2296 -292.8028 Q 11.2296 -335.0211 -29.3998 -335.0211 Q -184.7492 -335.0211 -301.4204 -335.0211 Q -456.7703 -335.0211 -612.1201 -335.0211 Q -652.7497 -335.0211 -652.7497 -292.8028 Q -652.7497 -241.4891 -652.7497 -160.5794 Q -652.7497 -83.9056 -577.5404 -83.9056 Q -456.7703 -83.9056 -301.4204 -83.9056" fill="none" stroke-width="3.0040" stroke="rgba(0,0,0,1.00)"></path><path d="M -652.7497 -160.5794 Q -652.7497 -148.2520 -652.7497 411.2423 Q -652.7497 472.1408 -594.1427 472.1408 Q -447.7817 472.1408 -301.4204 472.1408 Q -193.7383 472.1408 -47.3771 472.1408 Q 11.2296 472.1408 11.2296 411.2423 Q 11.2296 398.9147 11.2296 386.5873 Q 11.2296 113.0038 11.2296 -160.5794" fill="none" stroke-width="3.0040" stroke="rgba(0,0,0,1.00)"></path><path d="M 675.2098 411.2423 L 675.2098 -160.5794" fill="none" stroke-width="3.0040" stroke="rgba(0,0,0,1.00)"></path></svg>