<svg preserveAspectRatio="xMidYMid meet" viewBox="-1276.8474 -567.4649 2520.5720 1083.1798" height="100%" width="100%" xmlns="http://www.w3.org/2000/svg"><defs><pattern patternUnits="userSpaceOnUse" height="1000" width="1000" viewBox="0,0,10,10" id="placeholder"><polygon points="0,0 0,5 5,5 5,0" fill="grey"></polygon><polygon points="5,5 5,10 10,10 10,5" fill="grey"></polygon></pattern></defs><path d="M -991.6786 425.4497 Q -991.7306 425.4499 -991.7825 425.4499 Q -1024.6024 425.4499 -1057.4229 425.4499 Q -1066.7997 425.4499 -1066.7997 415.3457 Q -1066.7997 -25.8750 -1066.7997 -467.0957 Q -1066.7997 -477.1999 -1057.4229 -477.1999 Q -241.6121 -477.1999 1024.3008 -477.1999 Q 1033.6769 -477.1999 1033.6769 -467.0957 Q 1033.6769 -25.8750 1033.6769 415.3457 Q 1033.6769 425.4499 1024.3008 425.4499 Q 991.4803 425.4499 958.6599 425.4499 Q 958.6082 425.4499 958.5563 425.4497 Q 925.6600 425.4497 892.7631 425.4495 Q 892.6060 425.4499 892.4490 425.4499 Q 750.5147 425.4499 608.5810 425.4499 Q 504.1554 425.4499 362.2213 425.4499 Q 362.0641 425.4499 361.9069 425.4495 Q 305.3871 425.4495 248.8668 425.4495 Q 248.7093 425.4499 248.5524 425.4499 Q 106.6187 425.4499 2.1931 425.4499 Q -139.7411 425.4499 -281.6749 425.4499 Q -281.8319 425.4499 -281.9889 425.4495 Q -338.5096 425.4495 -395.0294 425.4495 Q -395.1865 425.4499 -395.3436 425.4499 Q -537.2778 425.4499 -641.7029 425.4499 Q -783.6371 425.4499 -925.5711 425.4499 Q -925.7286 425.4499 -925.8855 425.4495 Q -958.7819 425.4497 -991.6786 425.4497" fill="rgba(247,247,247,1.00)" stroke-width="10.0000" stroke="rgba(0,0,0,1.00)"></path><path d="M 2.1931 -133.7305 Q 115.3352 -133.7305 232.4527 -133.7305 Q 305.3871 -133.7305 305.3871 -210.8365 Q 305.3871 -292.2022 305.3871 -343.8051 Q 305.3871 -386.2614 265.9864 -386.2614 Q 115.3352 -386.2614 2.1931 -386.2614 Q -148.4576 -386.2614 -299.1083 -386.2614 Q -338.5096 -386.2614 -338.5096 -343.8051 Q -338.5096 -292.2022 -338.5096 -210.8365 Q -338.5096 -133.7305 -265.5751 -133.7305 Q -148.4576 -133.7305 2.1931 -133.7305" fill="none" stroke-width="4.2010" stroke="rgba(0,0,0,1.00)"></path><path d="M -338.5096 339.4142 Q -338.5096 351.8111 -338.5096 364.2081 Q -338.5096 425.4499 -281.6749 425.4499 Q -139.7411 425.4499 2.1931 425.4499 Q 106.6187 425.4499 248.5524 425.4499 Q 305.3871 425.4499 305.3871 364.2081" fill="none" stroke-width="4.2010" stroke="rgba(0,0,0,1.00)"></path><path d="M 608.5810 -133.7305 Q 495.4386 -133.7305 378.3214 -133.7305 Q 305.3871 -133.7305 305.3871 -210.8365 Q 305.3871 -292.2022 305.3871 -343.8051 Q 305.3871 -386.2614 344.7877 -386.2614 Q 495.4386 -386.2614 608.5810 -386.2614 Q 759.2317 -386.2614 909.8824 -386.2614 Q 949.2831 -386.2614 949.2831 -343.8051 Q 949.2831 -292.2022 949.2831 -210.8365 Q 949.2831 -133.7305 876.3489 -133.7305 Q 759.2317 -133.7305 608.5810 -133.7305" fill="none" stroke-width="4.2010" stroke="rgba(0,0,0,1.00)"></path><path d="M -641.7029 -133.7305 Q -528.5607 -133.7305 -411.4437 -133.7305 Q -338.5096 -133.7305 -338.5096 -210.8365 Q -338.5096 -292.2022 -338.5096 -343.8051 Q -338.5096 -386.2614 -377.9101 -386.2614 Q -528.5607 -386.2614 -641.7029 -386.2614 Q -792.3538 -386.2614 -943.0048 -386.2614 Q -982.4054 -386.2614 -982.4054 -343.8051 Q -982.4054 -292.2022 -982.4054 -210.8365 Q -982.4054 -133.7305 -909.4710 -133.7305 Q -792.3538 -133.7305 -641.7029 -133.7305" fill="none" stroke-width="4.2010" stroke="rgba(0,0,0,1.00)"></path><path d="M 949.2831 -210.8365 Q 949.2831 -198.4396 949.2831 364.2081 Q 949.2831 425.4499 892.4490 425.4499 Q 750.5147 425.4499 608.5810 425.4499 Q 504.1554 425.4499 362.2213 425.4499 Q 305.3871 425.4499 305.3871 364.2081 Q 305.3871 351.8111 305.3871 339.4142 Q 305.3871 64.2887 305.3871 -210.8365" fill="none" stroke-width="4.2010" stroke="rgba(0,0,0,1.00)"></path><path d="M -982.4054 -210.8365 Q -982.4054 -198.4396 -982.4054 364.2081 Q -982.4054 425.4499 -925.5711 425.4499 Q -783.6371 425.4499 -641.7029 425.4499 Q -537.2778 425.4499 -395.3436 425.4499 Q -338.5096 425.4499 -338.5096 364.2081 Q -338.5096 351.8111 -338.5096 339.4142 Q -338.5096 64.2887 -338.5096 -210.8365" fill="none" stroke-width="4.2010" stroke="rgba(0,0,0,1.00)"></path></svg>