<svg preserveAspectRatio="xMidYMid meet" viewBox="-898.5113 -1383.3185 2880.4480 2883.8194" height="100%" width="100%" xmlns="http://www.w3.org/2000/svg"><defs><pattern patternUnits="userSpaceOnUse" height="1000" width="1000" viewBox="0,0,10,10" id="placeholder"><polygon points="0,0 0,5 5,5 5,0" fill="grey"></polygon><polygon points="5,5 5,10 10,10 10,5" fill="grey"></polygon></pattern></defs><path d="M -658.3904 -256.6732 Q -658.4740 -695.7410 -658.4740 -1132.9869 Q -658.4740 -1143.0002 -648.4726 -1143.0002 Q 381.6877 -1143.0002 1731.8978 -1143.0002 Q 1741.8993 -1143.0002 1741.8993 -1132.9869 Q 1741.8993 -695.7410 1741.8993 -258.4953 Q 1741.8993 -248.4818 1731.8978 -248.4818 Q 1696.8923 -248.4818 1661.8870 -248.4818 Q 1661.8316 -248.4818 1661.7762 -248.4822 Q 1626.6889 -248.4822 1591.6016 -248.4822 Q 1591.4340 -248.4818 1591.2664 -248.4818 Q 1419.8778 -248.4818 1308.4987 -248.4818 Q 1157.1131 -248.4818 1005.7278 -248.4818 Q 1005.5601 -248.4818 1005.3925 -248.4822 Q 633.8341 -248.4821 262.2759 -248.4818 Q 234.9981 -248.4818 234.9981 -221.1723 Q 234.9981 479.3968 234.9979 1179.9658 Q 234.9981 1180.0212 234.9981 1180.0767 Q 234.9981 1215.1230 234.9981 1250.1695 Q 234.9981 1260.1827 224.9968 1260.1827 Q -211.7379 1260.1827 -648.4726 1260.1827 Q -658.4740 1260.1827 -658.4740 1250.1695 Q -658.4740 621.7870 -658.3904 -256.6732" fill="rgba(247,247,247,1.00)" stroke-width="10.0000" stroke="rgba(0,0,0,1.00)"></path><path d="M 234.9981 -277.2082 L 234.9981 -1010.8070" fill="none" stroke-width="4.8064" stroke="rgba(0,0,0,1.00)"></path><path d="M 234.9981 519.8119 Q 234.9981 459.1218 174.3792 459.1218" fill="none" stroke-width="4.8064" stroke="rgba(0,0,0,1.00)"></path><path d="M -318.4969 -170.5998 Q -318.4969 -248.4818 -394.8188 -248.4818" fill="none" stroke-width="4.8064" stroke="rgba(0,0,0,1.00)"></path><path d="M 1308.4987 -802.6247 Q 1429.1751 -802.6247 1574.0942 -802.6247 Q 1651.8854 -802.6247 1651.8854 -879.0359 Q 1651.8854 -959.6687 1651.8854 -1010.8070 Q 1651.8854 -1052.8805 1609.8610 -1052.8805 Q 1429.1751 -1052.8805 1308.4987 -1052.8805 Q 1147.8159 -1052.8805 987.1332 -1052.8805 Q 945.1087 -1052.8805 945.1087 -1010.8070 Q 945.1087 -959.6687 945.1087 -879.0359 Q 945.1087 -802.6247 1022.8999 -802.6247 Q 1147.8159 -802.6247 1308.4987 -802.6247" fill="none" stroke-width="4.8064" stroke="rgba(0,0,0,1.00)"></path><path d="M 206.3056 -248.4818 Q 234.9981 -248.4818 234.9981 -277.2082" fill="none" stroke-width="4.8064" stroke="rgba(0,0,0,1.00)"></path><path d="M -349.2019 -833.3656 L -542.3255 -1026.7155" fill="none" stroke-width="4.8064" stroke="rgba(0,0,0,1.00)"></path><path d="M -526.4356 459.1218 Q -568.4602 459.1218 -568.4602 501.1956" fill="none" stroke-width="4.8064" stroke="rgba(0,0,0,1.00)"></path><path d="M -385.3926 -248.4818 L 206.3056 -248.4818" fill="none" stroke-width="4.8064" stroke="rgba(0,0,0,1.00)"></path><path d="M -557.4030 -1029.8719 Q -567.9638 -1019.1690 -568.4602 -1010.8070 Q -568.4602 -733.1146 -568.4602 -612.2972 Q -568.4602 -451.4263 -568.4602 -290.5556 Q -568.4602 -248.4818 -526.4356 -248.4818 Q -475.3572 -248.4818 -394.8188 -248.4818 Q -318.4969 -248.4818 -318.4969 -326.3638 Q -318.4969 -451.4263 -318.4969 -612.2972 Q -318.4969 -700.6218 -318.4969 -746.0778 Q -318.4969 -793.1156 -349.2019 -833.3656" fill="none" stroke-width="4.8064" stroke="rgba(0,0,0,1.00)"></path><path d="M 884.4897 -248.4818 Q 945.1087 -248.4818 945.1087 -309.1718" fill="none" stroke-width="4.8064" stroke="rgba(0,0,0,1.00)"></path><path d="M 174.3792 1170.0635 Q 234.9981 1170.0635 234.9981 1109.3735" fill="none" stroke-width="4.8064" stroke="rgba(0,0,0,1.00)"></path><path d="M 174.3792 459.1218 Q 234.9981 459.1218 234.9981 398.4321" fill="none" stroke-width="4.8064" stroke="rgba(0,0,0,1.00)"></path><path d="M 235.0479 -274.4453 Q 236.3266 -248.4972 262.2759 -248.4816" fill="none" stroke-width="4.8064" stroke="rgba(0,0,0,1.00)"></path><path d="M -542.3255 -1026.7155 Q -551.2859 -1035.6861 -545.4781 -1041.8104" fill="none" stroke-width="4.8064" stroke="rgba(0,0,0,1.00)"></path><path d="M 598.3881 -802.6247 Q 719.0647 -802.6247 843.9808 -802.6247 Q 945.1087 -802.6247 945.1087 -879.0359 Q 945.1087 -959.6687 945.1087 -1010.8070 Q 945.1087 -1052.8805 903.0843 -1052.8805 Q 719.0647 -1052.8805 598.3881 -1052.8805 Q 437.7055 -1052.8805 277.0228 -1052.8805 Q 234.9981 -1052.8805 234.9981 -1010.8070 Q 234.9981 -959.6687 234.9981 -879.0359 Q 234.9981 -802.6247 312.7892 -802.6247 Q 437.7055 -802.6247 598.3881 -802.6247" fill="none" stroke-width="4.8064" stroke="rgba(0,0,0,1.00)"></path><path d="M -394.8188 459.1218 L -526.4356 459.1218" fill="none" stroke-width="4.8064" stroke="rgba(0,0,0,1.00)"></path><path d="M -318.4969 1092.1815 L -318.4969 560.3683" fill="none" stroke-width="4.8064" stroke="rgba(0,0,0,1.00)"></path><path d="M 174.3792 459.1218 L -394.8188 459.1218" fill="none" stroke-width="4.8064" stroke="rgba(0,0,0,1.00)"></path><path d="M -394.8188 1170.0635 Q -318.4969 1170.0635 -318.4969 1092.1815" fill="none" stroke-width="4.8064" stroke="rgba(0,0,0,1.00)"></path><path d="M -568.4602 417.0483 Q -568.4602 459.1218 -526.4356 459.1218" fill="none" stroke-width="4.8064" stroke="rgba(0,0,0,1.00)"></path><path d="M 945.1087 -333.7427 Q 945.1087 -321.4572 945.1087 -309.1718 Q 945.1087 -248.4818 1005.7278 -248.4818 Q 1157.1131 -248.4818 1308.4987 -248.4818 Q 1419.8778 -248.4818 1591.2664 -248.4818 Q 1651.8854 -248.4818 1651.8854 -309.1718" fill="none" stroke-width="4.8064" stroke="rgba(0,0,0,1.00)"></path><path d="M -545.4781 -1041.8104 Q -534.7878 -1052.3836 -526.4356 -1052.8805 Q -249.0681 -1052.8805 -128.3916 -1052.8805 Q 32.2910 -1052.8805 192.9738 -1052.8805 Q 234.9981 -1052.8805 234.9981 -1010.8070 Q 234.9981 -959.6687 234.9981 -879.0359 Q 234.9981 -802.6247 157.2071 -802.6247 Q 32.2910 -802.6247 -128.3916 -802.6247 Q -216.6133 -802.6247 -262.0161 -802.6247 Q -308.9986 -802.6247 -349.2019 -833.3656" fill="none" stroke-width="4.8064" stroke="rgba(0,0,0,1.00)"></path><path d="M -526.4356 459.1218 L -394.8188 459.1218" fill="none" stroke-width="4.8064" stroke="rgba(0,0,0,1.00)"></path><path d="M 234.9981 -221.1723 Q 234.9981 -248.4818 262.2759 -248.4818" fill="none" stroke-width="4.8064" stroke="rgba(0,0,0,1.00)"></path><path d="M -318.4969 381.2397 L -318.4969 -170.5998" fill="none" stroke-width="4.8064" stroke="rgba(0,0,0,1.00)"></path><path d="M -542.3255 -1026.7155 Q -551.2859 -1035.6861 -557.4030 -1029.8719" fill="none" stroke-width="4.8064" stroke="rgba(0,0,0,1.00)"></path><path d="M -394.8188 459.1218 Q -318.4969 459.1218 -318.4969 381.2397" fill="none" stroke-width="4.8064" stroke="rgba(0,0,0,1.00)"></path><path d="M 234.9981 -221.1723 Q 234.9981 -248.4818 206.3056 -248.4818" fill="none" stroke-width="4.8064" stroke="rgba(0,0,0,1.00)"></path><path d="M -526.4356 -248.4818 Q -568.4602 -248.4818 -568.4602 -206.4083" fill="none" stroke-width="4.8064" stroke="rgba(0,0,0,1.00)"></path><path d="M -568.4602 1127.9897 Q -568.4602 1170.0635 -526.4356 1170.0635" fill="none" stroke-width="4.8064" stroke="rgba(0,0,0,1.00)"></path><path d="M 149.8372 459.1218 L 174.3792 459.1218" fill="none" stroke-width="4.8064" stroke="rgba(0,0,0,1.00)"></path><path d="M -568.4602 501.1956 L -568.4602 1127.9897" fill="none" stroke-width="4.8064" stroke="rgba(0,0,0,1.00)"></path><path d="M -394.8188 -248.4818 L -526.4356 -248.4818" fill="none" stroke-width="4.8064" stroke="rgba(0,0,0,1.00)"></path><path d="M -318.4969 560.3683 Q -318.4969 459.1218 -394.8188 459.1218" fill="none" stroke-width="4.8064" stroke="rgba(0,0,0,1.00)"></path><path d="M -568.4602 -206.4083 L -568.4602 417.0483" fill="none" stroke-width="4.8064" stroke="rgba(0,0,0,1.00)"></path><path d="M -526.4356 1170.0635 L 174.3792 1170.0635" fill="none" stroke-width="4.8064" stroke="rgba(0,0,0,1.00)"></path><path d="M 945.1087 -309.1718 L 945.1087 -879.0359" fill="none" stroke-width="4.8064" stroke="rgba(0,0,0,1.00)"></path><path d="M 1651.8854 -309.1718 L 1651.8854 -879.0359" fill="none" stroke-width="4.8064" stroke="rgba(0,0,0,1.00)"></path></svg>