<svg preserveAspectRatio="xMidYMid meet" viewBox="-925.7973 -928.5658 1869.2318 1862.8305" height="100%" width="100%" xmlns="http://www.w3.org/2000/svg"><defs><pattern patternUnits="userSpaceOnUse" height="1000" width="1000" viewBox="0,0,10,10" id="placeholder"><polygon points="0,0 0,5 5,5 5,0" fill="grey"></polygon><polygon points="5,5 5,10 10,10 10,5" fill="grey"></polygon></pattern></defs><path d="M 460.0370 -762.3113 Q 451.0618 -767.0990 446.2965 -765.1637 Q 433.9921 -757.5973 421.3122 -750.6783 Q 421.4356 -756.6455 421.5591 -762.6128 Q 420.8448 -772.0052 411.5003 -773.1908 Q 402.1557 -774.3764 399.1184 -765.4601 Q 394.7196 -750.2299 390.3207 -734.9997 Q 369.6858 -723.2006 302.1654 -651.7191 Q 226.6893 -570.3994 149.5152 -490.6895 Q 132.6323 -472.7421 130.3703 -448.2058 Q 107.9430 -441.9656 85.5156 -435.7253 Q 76.4255 -432.5623 78.4236 -423.1474 Q 80.4216 -413.7324 90.0128 -414.5340 Q 112.3627 -415.3999 134.7126 -416.2658 Q 135.6828 -413.7050 136.8458 -411.2259 Q 146.0615 -390.4621 179.9903 -356.4238 Q 261.5587 -278.6048 343.1270 -200.7859 Q 378.7230 -168.4952 399.8972 -160.2660 Q 402.4283 -159.2208 405.0318 -158.3721 Q 405.2178 -136.0062 405.4038 -113.6403 Q 405.0541 -104.0221 414.5526 -102.4689 Q 424.0511 -100.9158 426.7831 -110.1446 Q 431.9619 -132.8405 437.1407 -155.5365 Q 461.5434 -158.9497 478.6772 -176.6578 Q 554.6701 -257.4947 632.3508 -336.7110 Q 700.5783 -407.5179 711.3941 -428.6848 Q 726.4006 -433.7950 741.4071 -438.9051 Q 750.1708 -442.3582 748.5471 -451.6367 Q 746.9233 -460.9152 737.5078 -461.1870 Q 731.5529 -460.7832 725.5981 -460.3793 Q 731.9132 -473.3704 738.8927 -486.0171 Q 740.6018 -490.8680 735.3974 -499.6083 Q 683.4788 -581.0012 613.6300 -647.6393 Q 543.7812 -714.2774 460.0370 -762.3113 Z" fill="rgba(247,247,247,1.00)" stroke-width="10.0000" stroke="rgba(0,0,0,1.00)"></path><path d="M 725.5981 -460.3793 Q 718.0021 -444.7534 711.3941 -428.6848" fill="none" stroke-width="3.1154" stroke="rgba(0,0,0,1.00)"></path><path d="M 437.1407 -155.5365 Q 420.7587 -153.2451 405.0318 -158.3721" fill="none" stroke-width="3.1154" stroke="rgba(0,0,0,1.00)"></path><path d="M 421.3122 -750.6783 Q 406.0608 -742.3560 390.3207 -734.9997" fill="none" stroke-width="3.1154" stroke="rgba(0,0,0,1.00)"></path><path d="M 615.9167 -484.6361 Q 658.2026 -407.2228 601.1955 -339.9093 Q 536.5448 -262.7287 471.8202 -185.6101 Q 454.8373 -165.2525 428.3758 -163.6293 Q 401.9142 -162.0062 382.5705 -180.1355 Q 325.1682 -231.4237 268.8343 -285.1682 Q 212.5004 -338.9126 157.5081 -394.8527 Q 138.4892 -413.3225 138.8663 -439.8311 Q 139.2434 -466.3398 158.7800 -484.2611 Q 232.7698 -552.5403 306.8251 -620.7486 Q 371.3836 -680.8578 450.6996 -642.2588 Q 503.4125 -616.8699 545.7449 -576.4834 Q 588.0773 -536.0969 615.9167 -484.6361 Z" fill="none" stroke-width="3.1154" stroke="rgba(0,0,0,1.00)"></path><path d="M 446.2965 -765.1637 C 567.0645 -698.9647 667.0883 -603.5387 738.8927 -486.0171" fill="none" stroke-width="3.1154" stroke="rgba(0,0,0,1.00)"></path><path d="M 130.3703 -448.2058 Q 128.8518 -431.7342 134.7126 -416.2658" fill="none" stroke-width="3.1154" stroke="rgba(0,0,0,1.00)"></path><path d="M 776.6465 464.3374 Q 781.4342 455.3621 779.4989 450.5969 Q 771.9324 438.2924 765.0134 425.6126 Q 770.9807 425.7360 776.9480 425.8594 Q 786.3403 425.1452 787.5260 415.8006 Q 788.7116 406.4560 779.7952 403.4188 Q 764.5651 399.0200 749.3349 394.6211 Q 737.5358 373.9861 666.0542 306.4658 Q 584.7346 230.9897 505.0247 153.8155 Q 487.0772 136.9326 462.5410 134.6707 Q 456.3007 112.2433 450.0604 89.8160 Q 446.8975 80.7259 437.4826 82.7239 Q 428.0676 84.7220 428.8692 94.3132 Q 429.7351 116.6630 430.6010 139.0129 Q 428.0402 139.9832 425.5610 141.1462 Q 404.7972 150.3619 370.7590 184.2907 Q 292.9400 265.8590 215.1211 347.4274 Q 182.8303 383.0233 174.6011 404.1975 Q 173.5560 406.7286 172.7072 409.3322 Q 150.3414 409.5182 127.9755 409.7042 Q 118.3572 409.3545 116.8041 418.8530 Q 115.2510 428.3515 124.4797 431.0834 Q 147.1757 436.2623 169.8716 441.4411 Q 173.2849 465.8438 190.9930 482.9776 Q 271.8299 558.9704 351.0462 636.6511 Q 421.8531 704.8787 443.0200 715.6945 Q 448.1301 730.7010 453.2403 745.7075 Q 456.6934 754.4712 465.9719 752.8474 Q 475.2504 751.2237 475.5222 741.8081 Q 475.1183 735.8533 474.7145 729.8984 Q 487.7056 736.2136 500.3522 743.1930 Q 505.2032 744.9021 513.9434 739.6977 Q 595.3364 687.7792 661.9745 617.9304 Q 728.6126 548.0816 776.6465 464.3374 Z" fill="rgba(247,247,247,1.00)" stroke-width="10.0000" stroke="rgba(0,0,0,1.00)"></path><path d="M 474.7145 729.8984 Q 459.0886 722.3025 443.0200 715.6945" fill="none" stroke-width="3.1154" stroke="rgba(0,0,0,1.00)"></path><path d="M 169.8716 441.4411 Q 167.5803 425.0591 172.7072 409.3322" fill="none" stroke-width="3.1154" stroke="rgba(0,0,0,1.00)"></path><path d="M 765.0134 425.6126 Q 756.6912 410.3612 749.3349 394.6211" fill="none" stroke-width="3.1154" stroke="rgba(0,0,0,1.00)"></path><path d="M 498.9713 620.2171 Q 421.5580 662.5029 354.2445 605.4959 Q 277.0639 540.8452 199.9453 476.1206 Q 179.5877 459.1377 177.9645 432.6761 Q 176.3413 406.2145 194.4707 386.8709 Q 245.7589 329.4686 299.5033 273.1347 Q 353.2478 216.8008 409.1879 161.8084 Q 427.6577 142.7896 454.1663 143.1667 Q 480.6749 143.5438 498.5963 163.0803 Q 566.8755 237.0702 635.0838 311.1255 Q 695.1930 375.6840 656.5940 455.0000 Q 631.2051 507.7129 590.8186 550.0453 Q 550.4321 592.3776 498.9713 620.2171 Z" fill="none" stroke-width="3.1154" stroke="rgba(0,0,0,1.00)"></path><path d="M 779.4989 450.5969 C 713.2999 571.3649 617.8738 671.3886 500.3522 743.1930" fill="none" stroke-width="3.1154" stroke="rgba(0,0,0,1.00)"></path><path d="M 462.5410 134.6707 Q 446.0694 133.1521 430.6010 139.0129" fill="none" stroke-width="3.1154" stroke="rgba(0,0,0,1.00)"></path><path d="M -759.0094 -474.7423 Q -763.7970 -465.7670 -761.8617 -461.0018 Q -754.2953 -448.6973 -747.3763 -436.0175 Q -753.3436 -436.1409 -759.3108 -436.2643 Q -768.7032 -435.5501 -769.8888 -426.2055 Q -771.0745 -416.8610 -762.1581 -413.8237 Q -746.9279 -409.4249 -731.6977 -405.0260 Q -719.8986 -384.3911 -648.4171 -316.8707 Q -567.0975 -241.3946 -487.3876 -164.2205 Q -469.4401 -147.3376 -444.9039 -145.0756 Q -438.6636 -122.6482 -432.4233 -100.2209 Q -429.2604 -91.1308 -419.8454 -93.1289 Q -410.4305 -95.1269 -411.2321 -104.7181 Q -412.0980 -127.0680 -412.9638 -149.4178 Q -410.4031 -150.3881 -407.9239 -151.5511 Q -387.1601 -160.7668 -353.1218 -194.6956 Q -275.3029 -276.2639 -197.4839 -357.8323 Q -165.1932 -393.4283 -156.9640 -414.6024 Q -155.9189 -417.1336 -155.0701 -419.7371 Q -132.7042 -419.9231 -110.3384 -420.1091 Q -100.7201 -419.7594 -99.1670 -429.2579 Q -97.6139 -438.7564 -106.8426 -441.4884 Q -129.5386 -446.6672 -152.2345 -451.8460 Q -155.6477 -476.2487 -173.3559 -493.3825 Q -254.1927 -569.3754 -333.4091 -647.0561 Q -404.2159 -715.2836 -425.3829 -726.0994 Q -430.4930 -741.1059 -435.6031 -756.1124 Q -439.0563 -764.8761 -448.3348 -763.2524 Q -457.6133 -761.6286 -457.8851 -752.2131 Q -457.4812 -746.2582 -457.0773 -740.3033 Q -470.0685 -746.6185 -482.7151 -753.5980 Q -487.5661 -755.3071 -496.3063 -750.1027 Q -577.6992 -698.1841 -644.3373 -628.3353 Q -710.9755 -558.4865 -759.0094 -474.7423 Z" fill="rgba(247,247,247,1.00)" stroke-width="10.0000" stroke="rgba(0,0,0,1.00)"></path><path d="M -457.0773 -740.3033 Q -441.4515 -732.7074 -425.3829 -726.0994" fill="none" stroke-width="3.1154" stroke="rgba(0,0,0,1.00)"></path><path d="M -152.2345 -451.8460 Q -149.9432 -435.4640 -155.0701 -419.7371" fill="none" stroke-width="3.1154" stroke="rgba(0,0,0,1.00)"></path><path d="M -747.3763 -436.0175 Q -739.0540 -420.7661 -731.6977 -405.0260" fill="none" stroke-width="3.1154" stroke="rgba(0,0,0,1.00)"></path><path d="M -481.3342 -630.6220 Q -403.9209 -672.9078 -336.6073 -615.9008 Q -259.4268 -551.2501 -182.3081 -486.5255 Q -161.9505 -469.5426 -160.3274 -443.0810 Q -158.7042 -416.6195 -176.8335 -397.2758 Q -228.1218 -339.8735 -281.8662 -283.5396 Q -335.6107 -227.2057 -391.5507 -172.2134 Q -410.0205 -153.1945 -436.5292 -153.5716 Q -463.0378 -153.9487 -480.9591 -173.4852 Q -549.2384 -247.4751 -617.4467 -321.5304 Q -677.5559 -386.0889 -638.9569 -465.4049 Q -613.5680 -518.1178 -573.1815 -560.4502 Q -532.7950 -602.7825 -481.3342 -630.6220 Z" fill="none" stroke-width="3.1154" stroke="rgba(0,0,0,1.00)"></path><path d="M -761.8617 -461.0018 C -695.6628 -581.7698 -600.2367 -681.7935 -482.7151 -753.5980" fill="none" stroke-width="3.1154" stroke="rgba(0,0,0,1.00)"></path><path d="M -444.9039 -145.0756 Q -428.4322 -143.5571 -412.9638 -149.4178" fill="none" stroke-width="3.1154" stroke="rgba(0,0,0,1.00)"></path><path d="M -479.1825 767.6076 Q -470.2456 772.4664 -465.4651 770.5690 Q -453.1009 763.1007 -440.3665 756.2826 Q -440.5373 762.2487 -440.7082 768.2148 Q -440.0686 777.6126 -430.7337 778.8725 Q -421.3989 780.1323 -418.2909 771.2404 Q -413.7711 756.0457 -409.2514 740.8509 Q -388.5232 729.2162 -320.4368 658.2736 Q -244.3168 577.5564 -166.5115 498.4625 Q -149.4865 480.6498 -147.0296 456.1323 Q -124.5534 450.0704 -102.0771 444.0086 Q -92.9622 440.9181 -94.8853 431.4875 Q -96.8085 422.0570 -106.4057 422.7823 Q -128.7618 423.4705 -151.1179 424.1587 Q -152.0677 421.5903 -153.2110 419.1020 Q -162.2614 398.2656 -195.9185 363.9587 Q -276.8658 285.4939 -357.8130 207.0291 Q -393.1512 174.4564 -414.2593 166.0592 Q -416.7820 164.9940 -419.3787 164.1246 Q -419.3870 141.7579 -419.3952 119.3913 Q -418.9691 109.7761 -428.4549 108.1475 Q -437.9407 106.5190 -440.7460 115.7257 Q -446.1051 138.3798 -451.4641 161.0338 Q -475.8932 164.2530 -493.1672 181.8244 Q -569.8001 262.0547 -648.1080 340.6511 Q -716.8962 410.9134 -727.8799 431.9938 Q -742.9265 436.9844 -757.9732 441.9751 Q -766.7640 445.3585 -765.2141 454.6496 Q -763.6642 463.9407 -754.2511 464.2873 Q -748.2932 463.9308 -742.3353 463.5743 Q -748.7535 476.5148 -755.8333 489.1056 Q -757.5809 493.9428 -752.4461 502.7242 Q -701.1761 584.5272 -631.8592 651.7183 Q -562.5423 718.9095 -479.1825 767.6076 Z" fill="rgba(247,247,247,1.00)" stroke-width="10.0000" stroke="rgba(0,0,0,1.00)"></path><path d="M -742.3353 463.5743 Q -734.6154 448.0093 -727.8799 431.9938" fill="none" stroke-width="3.1154" stroke="rgba(0,0,0,1.00)"></path><path d="M -451.4641 161.0338 Q -435.0644 158.8728 -419.3787 164.1246" fill="none" stroke-width="3.1154" stroke="rgba(0,0,0,1.00)"></path><path d="M -440.3665 756.2826 Q -425.0494 748.0819 -409.2514 740.8509" fill="none" stroke-width="3.1154" stroke="rgba(0,0,0,1.00)"></path><path d="M -632.8502 488.7022 Q -674.5194 410.9552 -616.9792 344.0969 Q -551.7170 267.4326 -486.3815 190.8309 Q -469.2374 170.6089 -442.7637 169.1961 Q -416.2901 167.7833 -397.0911 186.0658 Q -340.0983 237.8087 -284.1934 291.9992 Q -228.2884 346.1897 -173.7424 402.5651 Q -154.8710 421.1855 -155.4588 447.6903 Q -156.0466 474.1951 -175.7249 491.9606 Q -250.2552 559.6496 -324.8502 627.2671 Q -389.8845 686.8613 -468.8912 647.6330 Q -521.4006 621.8260 -563.4107 581.1043 Q -605.4207 540.3826 -632.8502 488.7022 Z" fill="none" stroke-width="3.1154" stroke="rgba(0,0,0,1.00)"></path><path d="M -465.4651 770.5690 C -585.7031 703.4123 -684.9652 607.1942 -755.8333 489.1056" fill="none" stroke-width="3.1154" stroke="rgba(0,0,0,1.00)"></path><path d="M -147.0296 456.1323 Q -145.3802 439.6732 -151.1179 424.1587" fill="none" stroke-width="3.1154" stroke="rgba(0,0,0,1.00)"></path><path d="M 602.1659 -13.1183 C 602.1659 -343.7639 334.1246 -611.8052 3.4789 -611.8052 C -327.1668 -611.8052 -595.2081 -343.7639 -595.2081 -13.1183 C -595.2081 317.5274 -327.1668 585.5687 3.4789 585.5687 C 334.1246 585.5687 602.1659 317.5274 602.1659 -13.1183 Z" fill="rgba(247,247,247,1.00)" stroke-width="10.0000" stroke="rgba(0,0,0,1.00)"></path></svg>