<svg preserveAspectRatio="xMidYMid meet" viewBox="-1010.3856 -1014.5122 2000.9664 2010.2375" height="100%" width="100%" xmlns="http://www.w3.org/2000/svg"><defs><pattern patternUnits="userSpaceOnUse" height="1000" width="1000" viewBox="0,0,10,10" id="placeholder"><polygon points="0,0 0,5 5,5 5,0" fill="grey"></polygon><polygon points="5,5 5,10 10,10 10,5" fill="grey"></polygon></pattern></defs><path d="M -190.2719 805.1529 Q -200.0708 802.4215 -202.1827 797.7318 Q -205.8625 783.7637 -210.2608 770.0048 Q -214.2906 774.4076 -218.3204 778.8103 Q -225.3206 785.1131 -232.9002 779.5205 Q -240.4798 773.9280 -236.5225 765.3801 Q -229.1921 751.3240 -221.8618 737.2679 Q -228.6473 714.4868 -228.1586 616.1589 Q -226.6351 505.2211 -227.4514 394.2759 Q -227.2780 369.6362 -211.9778 350.3218 Q -223.8973 330.3255 -235.8168 310.3293 Q -240.2106 301.7660 -232.2659 296.3332 Q -224.3213 290.9003 -217.9350 298.1009 Q -202.3617 314.1551 -186.7883 330.2093 Q -184.3187 329.0262 -181.7659 328.0353 Q -160.7650 319.3732 -112.7202 318.1656 Q 0.0148 318.1656 112.7498 318.1656 Q 160.7947 319.3732 181.7955 328.0353 Q 184.3483 329.0262 186.8180 330.2093 Q 202.3913 314.1551 217.9647 298.1009 Q 224.3510 290.9003 232.2956 296.3332 Q 240.2402 301.7660 235.8465 310.3293 Q 223.9270 330.3255 212.0074 350.3218 Q 227.3077 369.6362 227.4811 394.2759 Q 226.6647 505.2211 228.1883 616.1589 Q 228.6769 714.4868 221.8914 737.2679 Q 229.2218 751.3240 236.5522 765.3801 Q 240.5094 773.9280 232.9298 779.5205 Q 225.3502 785.1131 218.3501 778.8103 Q 214.3203 774.4076 210.2904 770.0048 Q 205.8922 783.7637 202.2124 797.7318 Q 200.1004 802.4215 190.3016 805.1529 Q 96.5524 828.2055 0.0148 828.2055 Q -96.5227 828.2055 -190.2719 805.1529 Z" fill="rgba(247,247,247,1.00)" stroke-width="10.0000" stroke="rgba(0,0,0,1.00)"></path><path d="M 210.2904 770.0048 Q 215.5808 753.4556 221.8914 737.2679" fill="none" stroke-width="3.3504" stroke="rgba(0,0,0,1.00)"></path><path d="M 212.0074 350.3218 Q 201.7361 337.3557 186.8180 330.2093" fill="none" stroke-width="3.3504" stroke="rgba(0,0,0,1.00)"></path><path d="M -210.2608 770.0048 Q -215.5511 753.4556 -221.8618 737.2679" fill="none" stroke-width="3.3504" stroke="rgba(0,0,0,1.00)"></path><path d="M 114.1875 711.8446 Q 198.2200 685.0221 203.4385 596.9671 Q 209.9374 496.4966 216.3402 396.0199 Q 218.1049 369.5674 200.0793 350.1270 Q 182.0537 330.6867 155.5434 330.4514 Q 78.6072 327.9367 0.7485 327.9367 Q -77.1101 327.9367 -155.5138 330.4514 Q -182.0240 330.6867 -200.0496 350.1270 Q -218.0752 369.5674 -216.3105 396.0199 Q -209.9078 496.4966 -203.4088 596.9671 Q -198.1904 685.0221 -114.1578 711.8446 Q -58.4924 729.8615 0.0148 729.8615 Q 58.5221 729.8615 114.1875 711.8446 Z" fill="none" stroke-width="3.3504" stroke="rgba(0,0,0,1.00)"></path><path d="M -202.1827 797.7318 C -69.1062 833.1982 69.1359 833.1982 202.2124 797.7318" fill="none" stroke-width="3.3504" stroke="rgba(0,0,0,1.00)"></path><path d="M -211.9778 350.3218 Q -201.7064 337.3557 -186.7883 330.2093" fill="none" stroke-width="3.3504" stroke="rgba(0,0,0,1.00)"></path><path d="M -820.5857 185.5716 Q -817.8543 195.3704 -813.1647 197.4823 Q -799.1965 201.1621 -785.4377 205.5604 Q -789.8404 209.5902 -794.2432 213.6200 Q -800.5459 220.6202 -794.9534 228.1998 Q -789.3609 235.7794 -780.8129 231.8222 Q -766.7569 224.4918 -752.7008 217.1614 Q -729.9197 223.9469 -631.5918 223.4582 Q -520.6540 221.9347 -409.7087 222.7511 Q -385.0691 222.5777 -365.7547 207.2774 Q -345.7584 219.1969 -325.7621 231.1165 Q -317.1989 235.5102 -311.7660 227.5656 Q -306.3331 219.6209 -313.5337 213.2346 Q -329.5879 197.6613 -345.6422 182.0880 Q -344.4591 179.6183 -343.4681 177.0655 Q -334.8061 156.0647 -333.5985 108.0198 Q -333.5985 -4.7152 -333.5985 -117.4502 Q -334.8061 -165.4951 -343.4681 -186.4959 Q -344.4591 -189.0487 -345.6422 -191.5183 Q -329.5879 -207.0917 -313.5337 -222.6650 Q -306.3331 -229.0513 -311.7660 -236.9959 Q -317.1989 -244.9406 -325.7621 -240.5468 Q -345.7584 -228.6273 -365.7547 -216.7078 Q -385.0691 -232.0081 -409.7087 -232.1814 Q -520.6540 -231.3651 -631.5918 -232.8886 Q -729.9197 -233.3773 -752.7008 -226.5918 Q -766.7569 -233.9222 -780.8129 -241.2525 Q -789.3609 -245.2098 -794.9534 -237.6302 Q -800.5459 -230.0506 -794.2432 -223.0504 Q -789.8404 -219.0206 -785.4377 -214.9908 Q -799.1965 -210.5925 -813.1647 -206.9127 Q -817.8543 -204.8008 -820.5857 -195.0019 Q -843.6384 -101.2527 -843.6384 -4.7152 Q -843.6384 91.8223 -820.5857 185.5716 Z" fill="rgba(247,247,247,1.00)" stroke-width="10.0000" stroke="rgba(0,0,0,1.00)"></path><path d="M -785.4377 -214.9908 Q -768.8884 -220.2811 -752.7008 -226.5918" fill="none" stroke-width="3.3504" stroke="rgba(0,0,0,1.00)"></path><path d="M -365.7547 -216.7078 Q -352.7886 -206.4364 -345.6422 -191.5183" fill="none" stroke-width="3.3504" stroke="rgba(0,0,0,1.00)"></path><path d="M -785.4377 205.5604 Q -768.8884 210.8507 -752.7008 217.1614" fill="none" stroke-width="3.3504" stroke="rgba(0,0,0,1.00)"></path><path d="M -727.2774 -118.8878 Q -700.4550 -202.9204 -612.4000 -208.1388 Q -511.9295 -214.6378 -411.4528 -221.0405 Q -385.0003 -222.8052 -365.5599 -204.7796 Q -346.1195 -186.7541 -345.8842 -160.2438 Q -343.3696 -83.3076 -343.3696 -5.4489 Q -343.3696 72.4098 -345.8842 150.8134 Q -346.1195 177.3237 -365.5599 195.3493 Q -385.0003 213.3749 -411.4528 211.6102 Q -511.9295 205.2074 -612.4000 198.7084 Q -700.4550 193.4900 -727.2774 109.4575 Q -745.2943 53.7921 -745.2943 -4.7152 Q -745.2943 -63.2224 -727.2774 -118.8878 Z" fill="none" stroke-width="3.3504" stroke="rgba(0,0,0,1.00)"></path><path d="M -813.1647 197.4823 C -848.6310 64.4059 -848.6310 -73.8363 -813.1647 -206.9127" fill="none" stroke-width="3.3504" stroke="rgba(0,0,0,1.00)"></path><path d="M -365.7547 207.2774 Q -352.7886 197.0060 -345.6422 182.0880" fill="none" stroke-width="3.3504" stroke="rgba(0,0,0,1.00)"></path><path d="M -190.2719 -823.9398 Q -200.0708 -821.2084 -202.1827 -816.5187 Q -205.8625 -802.5506 -210.2608 -788.7917 Q -214.2906 -793.1945 -218.3204 -797.5972 Q -225.3206 -803.9000 -232.9002 -798.3074 Q -240.4798 -792.7149 -236.5225 -784.1670 Q -229.1921 -770.1109 -221.8618 -756.0548 Q -228.6473 -733.2737 -228.1586 -634.9458 Q -226.6351 -524.0080 -227.4514 -413.0628 Q -227.2780 -388.4231 -211.9778 -369.1087 Q -223.8973 -349.1124 -235.8168 -329.1161 Q -240.2106 -320.5529 -232.2659 -315.1200 Q -224.3213 -309.6871 -217.9350 -316.8878 Q -202.3617 -332.9420 -186.7883 -348.9962 Q -184.3187 -347.8131 -181.7659 -346.8221 Q -160.7650 -338.1601 -112.7202 -336.9525 Q 0.0148 -336.9525 112.7498 -336.9525 Q 160.7947 -338.1601 181.7955 -346.8221 Q 184.3483 -347.8131 186.8180 -348.9962 Q 202.3913 -332.9420 217.9647 -316.8878 Q 224.3510 -309.6871 232.2956 -315.1200 Q 240.2402 -320.5529 235.8465 -329.1161 Q 223.9270 -349.1124 212.0074 -369.1087 Q 227.3077 -388.4231 227.4811 -413.0628 Q 226.6647 -524.0080 228.1883 -634.9458 Q 228.6769 -733.2737 221.8914 -756.0548 Q 229.2218 -770.1109 236.5522 -784.1670 Q 240.5094 -792.7149 232.9298 -798.3074 Q 225.3502 -803.9000 218.3501 -797.5972 Q 214.3203 -793.1945 210.2904 -788.7917 Q 205.8922 -802.5506 202.2124 -816.5187 Q 200.1004 -821.2084 190.3016 -823.9398 Q 96.5524 -846.9924 0.0148 -846.9924 Q -96.5227 -846.9924 -190.2719 -823.9398 Z" fill="rgba(247,247,247,1.00)" stroke-width="10.0000" stroke="rgba(0,0,0,1.00)"></path><path d="M 210.2904 -788.7917 Q 215.5808 -772.2425 221.8914 -756.0548" fill="none" stroke-width="3.3504" stroke="rgba(0,0,0,1.00)"></path><path d="M 212.0074 -369.1087 Q 201.7361 -356.1426 186.8180 -348.9962" fill="none" stroke-width="3.3504" stroke="rgba(0,0,0,1.00)"></path><path d="M -210.2608 -788.7917 Q -215.5511 -772.2425 -221.8618 -756.0548" fill="none" stroke-width="3.3504" stroke="rgba(0,0,0,1.00)"></path><path d="M 114.1875 -730.6315 Q 198.2200 -703.8090 203.4385 -615.7540 Q 209.9374 -515.2835 216.3402 -414.8068 Q 218.1049 -388.3543 200.0793 -368.9139 Q 182.0537 -349.4736 155.5434 -349.2383 Q 78.6072 -346.7236 0.7485 -346.7236 Q -77.1101 -346.7236 -155.5138 -349.2383 Q -182.0240 -349.4736 -200.0496 -368.9139 Q -218.0752 -388.3543 -216.3105 -414.8068 Q -209.9078 -515.2835 -203.4088 -615.7540 Q -198.1904 -703.8090 -114.1578 -730.6315 Q -58.4924 -748.6484 0.0148 -748.6484 Q 58.5221 -748.6484 114.1875 -730.6315 Z" fill="none" stroke-width="3.3504" stroke="rgba(0,0,0,1.00)"></path><path d="M -202.1827 -816.5187 C -69.1062 -851.9851 69.1359 -851.9851 202.2124 -816.5187" fill="none" stroke-width="3.3504" stroke="rgba(0,0,0,1.00)"></path><path d="M -211.9778 -369.1087 Q -201.7064 -356.1426 -186.7883 -348.9962" fill="none" stroke-width="3.3504" stroke="rgba(0,0,0,1.00)"></path><path d="M 800.7810 185.5716 Q 798.0496 195.3704 793.3600 197.4823 Q 779.3918 201.1621 765.6330 205.5604 Q 770.0357 209.5902 774.4384 213.6200 Q 780.7412 220.6202 775.1487 228.1998 Q 769.5561 235.7794 761.0082 231.8222 Q 746.9521 224.4918 732.8960 217.1614 Q 710.1149 223.9469 611.7871 223.4582 Q 500.8493 221.9347 389.9040 222.7511 Q 365.2643 222.5777 345.9499 207.2774 Q 325.9537 219.1969 305.9574 231.1165 Q 297.3942 235.5102 291.9613 227.5656 Q 286.5284 219.6209 293.7290 213.2346 Q 309.7832 197.6613 325.8374 182.0880 Q 324.6543 179.6183 323.6634 177.0655 Q 315.0014 156.0647 313.7938 108.0198 Q 313.7938 -4.7152 313.7938 -117.4502 Q 315.0014 -165.4951 323.6634 -186.4959 Q 324.6543 -189.0487 325.8374 -191.5183 Q 309.7832 -207.0917 293.7290 -222.6650 Q 286.5284 -229.0513 291.9613 -236.9959 Q 297.3942 -244.9406 305.9574 -240.5468 Q 325.9537 -228.6273 345.9499 -216.7078 Q 365.2643 -232.0081 389.9040 -232.1814 Q 500.8493 -231.3651 611.7871 -232.8886 Q 710.1149 -233.3773 732.8960 -226.5918 Q 746.9521 -233.9222 761.0082 -241.2525 Q 769.5561 -245.2098 775.1487 -237.6302 Q 780.7412 -230.0506 774.4384 -223.0504 Q 770.0357 -219.0206 765.6330 -214.9908 Q 779.3918 -210.5925 793.3600 -206.9127 Q 798.0496 -204.8008 800.7810 -195.0019 Q 823.8336 -101.2527 823.8336 -4.7152 Q 823.8336 91.8223 800.7810 185.5716 Z" fill="rgba(247,247,247,1.00)" stroke-width="10.0000" stroke="rgba(0,0,0,1.00)"></path><path d="M 765.6330 -214.9908 Q 749.0837 -220.2811 732.8960 -226.5918" fill="none" stroke-width="3.3504" stroke="rgba(0,0,0,1.00)"></path><path d="M 345.9499 -216.7078 Q 332.9838 -206.4364 325.8374 -191.5183" fill="none" stroke-width="3.3504" stroke="rgba(0,0,0,1.00)"></path><path d="M 765.6330 205.5604 Q 749.0837 210.8507 732.8960 217.1614" fill="none" stroke-width="3.3504" stroke="rgba(0,0,0,1.00)"></path><path d="M 707.4727 -118.8878 Q 680.6502 -202.9204 592.5952 -208.1388 Q 492.1247 -214.6378 391.6481 -221.0405 Q 365.1955 -222.8052 345.7552 -204.7796 Q 326.3148 -186.7541 326.0795 -160.2438 Q 323.5649 -83.3076 323.5649 -5.4489 Q 323.5649 72.4098 326.0795 150.8134 Q 326.3148 177.3237 345.7552 195.3493 Q 365.1955 213.3749 391.6481 211.6102 Q 492.1247 205.2074 592.5952 198.7084 Q 680.6502 193.4900 707.4727 109.4575 Q 725.4896 53.7921 725.4896 -4.7152 Q 725.4896 -63.2224 707.4727 -118.8878 Z" fill="none" stroke-width="3.3504" stroke="rgba(0,0,0,1.00)"></path><path d="M 793.3600 197.4823 C 828.8263 64.4059 828.8263 -73.8363 793.3600 -206.9127" fill="none" stroke-width="3.3504" stroke="rgba(0,0,0,1.00)"></path><path d="M 345.9499 207.2774 Q 332.9838 197.0060 325.8374 182.0880" fill="none" stroke-width="3.3504" stroke="rgba(0,0,0,1.00)"></path><path d="M 500.0146 -446.4624 Q 500.0146 -501.4058 472.6773 -501.4058 L -472.6476 -501.4058 Q -499.9850 -501.4058 -499.9850 -446.4624 L -499.9850 443.6204 Q -499.9850 498.5638 -472.6476 498.5638 L 472.6773 498.5638 Q 500.0146 498.5638 500.0146 443.6204 L 500.0146 -446.4624" fill="rgba(247,247,247,1.00)" stroke-width="10.0000" stroke="rgba(0,0,0,1.00)"></path></svg>